<svg xmlns="http://www.w3.org/2000/svg" version="1.1" xmlns:xlink="http://www.w3.org/1999/xlink" xmlns:svgjs="http://svgjs.com/svgjs" width="1440" height="560" preserveAspectRatio="none" viewBox="0 0 1440 560"><g mask="url(&quot;#SvgjsMask1028&quot;)" fill="none"><path d="M1488 560L0 560 L0 371.59Q48.87 300.46, 120 349.34Q174.14 283.48, 240 337.62Q287.4 313.02, 312 360.42Q356.85 333.27, 384 378.13Q398.82 272.95, 504 287.78Q547.77 259.55, 576 303.33Q633.41 288.74, 648 346.15Q719.05 297.19, 768 368.24Q802.8 283.04, 888 317.84Q942.25 300.09, 960 354.34Q962.63 284.98, 1032 287.61Q1110.71 294.32, 1104 373.03Q1103.07 300.1, 1176 299.17Q1205.89 257.06, 1248 286.95Q1324.32 243.27, 1368 319.59Q1444.19 275.78, 1488 351.98z" fill="rgba(55, 150, 248, 1)"></path><path d="M1560 560L0 560 L0 364.17Q52.69 344.87, 72 397.56Q124.05 329.61, 192 381.65Q269.02 338.67, 312 415.7Q379.71 363.41, 432 431.12Q465.02 344.14, 552 377.16Q617.89 323.06, 672 388.95Q735.81 380.76, 744 444.57Q746.07 374.63, 816 376.7Q869.25 309.95, 936 363.2Q1021.82 329.02, 1056 414.84Q1126.51 365.35, 1176 435.86Q1187.77 375.63, 1248 387.4Q1273.79 341.19, 1320 366.98Q1403.89 330.87, 1440 414.76Q1482.11 336.87, 1560 378.98z" fill="rgba(9, 124, 243, 1)"></path><path d="M1512 560L0 560 L0 432.29Q62.94 375.24, 120 438.18Q174.97 421.15, 192 476.13Q264.32 428.45, 312 500.77Q334.72 403.49, 432 426.21Q503.46 377.67, 552 449.13Q596.22 421.35, 624 465.57Q706.42 427.99, 744 510.41Q763.77 410.19, 864 429.96Q905.25 399.2, 936 440.45Q1002.37 386.82, 1056 453.19Q1132.13 409.31, 1176 485.44Q1200.92 438.36, 1248 463.28Q1271.4 414.68, 1320 438.08Q1398.82 396.89, 1440 475.71Q1495.31 459.02, 1512 514.33z" fill="rgba(7, 99, 194, 1)"></path><path d="M1488 560L0 560 L0 538.31Q63.32 481.63, 120 544.94Q200.73 505.67, 240 586.4Q261.29 487.69, 360 508.99Q427.57 456.56, 480 524.12Q500.82 472.94, 552 493.77Q621.75 443.52, 672 513.28Q761.26 482.54, 792 571.8Q819.51 527.31, 864 554.82Q890.21 509.03, 936 535.24Q1019.61 498.85, 1056 582.45Q1100.82 507.27, 1176 552.09Q1194.49 498.59, 1248 517.08Q1332.6 481.68, 1368 566.28Q1438.07 516.35, 1488 586.41z" fill="rgba(5, 74, 145, 1)"></path></g><defs><mask id="SvgjsMask1028"><rect width="1440" height="560" fill="#ffffff"></rect></mask></defs></svg>