<svg width="1440" height="560" viewBox="0 0 1440 560" fill="none" xmlns="http://www.w3.org/2000/svg">
<g clip-path="url(#clip0_3_450)">
<path d="M610.66 247.21C610.66 247.27 610.672 247.33 610.695 247.386C610.718 247.442 610.752 247.493 610.795 247.535C610.837 247.578 610.888 247.612 610.944 247.635C611 247.658 611.06 247.67 611.12 247.67C611.18 247.67 611.24 247.658 611.296 247.635C611.352 247.612 611.403 247.578 611.445 247.535C611.488 247.493 611.522 247.442 611.545 247.386C611.568 247.33 611.58 247.27 611.58 247.21C611.58 247.15 611.568 247.09 611.545 247.034C611.522 246.978 611.488 246.927 611.445 246.885C611.403 246.842 611.352 246.808 611.296 246.785C611.24 246.762 611.18 246.75 611.12 246.75C611.06 246.75 611 246.762 610.944 246.785C610.888 246.808 610.837 246.842 610.795 246.885C610.752 246.927 610.718 246.978 610.695 247.034C610.672 247.09 610.66 247.15 610.66 247.21V247.21Z" stroke="#DB3069" stroke-opacity="0.2"/>
<path d="M782.96 175.31H825.94V218.29H782.96V175.31Z" stroke="#177E89" stroke-opacity="0.2"/>
<path d="M192.52 478.37C192.52 485.562 193.937 492.685 196.689 499.33C199.442 505.975 203.476 512.012 208.562 517.098C213.648 522.184 219.685 526.218 226.33 528.971C232.975 531.723 240.097 533.14 247.29 533.14C254.482 533.14 261.605 531.723 268.25 528.971C274.895 526.218 280.932 522.184 286.018 517.098C291.104 512.012 295.138 505.975 297.891 499.33C300.643 492.685 302.06 485.562 302.06 478.37C302.06 463.844 296.29 449.913 286.018 439.642C275.747 429.37 261.816 423.6 247.29 423.6C232.764 423.6 218.833 429.37 208.562 439.642C198.29 449.913 192.52 463.844 192.52 478.37V478.37Z" fill="#DB3069" fill-opacity="0.2"/>
<path d="M800.13 404.33C794.883 408.971 790.605 414.602 787.541 420.901C784.476 427.2 782.686 434.042 782.273 441.035C781.86 448.027 782.832 455.032 785.134 461.648C787.436 468.264 791.021 474.36 795.685 479.586C800.349 484.812 805.999 489.066 812.312 492.102C818.624 495.139 825.474 496.899 832.468 497.281C839.462 497.664 846.463 496.661 853.069 494.33C859.674 491.999 865.754 488.387 870.96 483.7L800.13 404.33Z" fill="#DF9A57" fill-opacity="0.2"/>
<path d="M444.29 237.26C444.29 243.986 446.962 250.436 451.718 255.192C456.474 259.948 462.924 262.62 469.65 262.62C476.376 262.62 482.826 259.948 487.582 255.192C492.338 250.436 495.01 243.986 495.01 237.26C495.01 230.534 492.338 224.084 487.582 219.328C482.826 214.572 476.376 211.9 469.65 211.9C462.924 211.9 456.474 214.572 451.718 219.328C446.962 224.084 444.29 230.534 444.29 237.26Z" stroke="#DB3069" stroke-opacity="0.2"/>
<path d="M1133.43 331.83H1152.76V379.42H1133.43V331.83Z" fill="#DF9A57" fill-opacity="0.2"/>
<path d="M627.41 334.38C627.587 332.998 627.491 331.594 627.125 330.249C626.76 328.905 626.134 327.645 625.282 326.542C624.43 325.44 623.369 324.516 622.16 323.823C620.951 323.13 619.617 322.682 618.235 322.505C616.853 322.328 615.449 322.424 614.104 322.79C612.76 323.155 611.5 323.781 610.397 324.633C609.295 325.485 608.371 326.546 607.678 327.755C606.985 328.964 606.537 330.298 606.36 331.68L627.41 334.38Z" stroke="#177E89" stroke-opacity="0.2"/>
<path d="M1227.41 377.74C1225.87 379.071 1224.6 380.695 1223.69 382.52C1222.78 384.344 1222.25 386.331 1222.11 388.365C1221.98 390.399 1222.25 392.439 1222.92 394.366C1223.58 396.293 1224.62 398.069 1225.98 399.59C1227.34 401.11 1228.98 402.346 1230.82 403.223C1232.66 404.1 1234.66 404.603 1236.69 404.701C1238.73 404.798 1240.77 404.49 1242.68 403.792C1244.6 403.095 1246.35 402.024 1247.85 400.64L1227.41 377.74Z" stroke="#DB3069" stroke-opacity="0.2"/>
<path d="M161.09 136.63H197.86V182.26H161.09V136.63Z" stroke="#DB3069" stroke-opacity="0.2"/>
<path d="M31.46 509.48H85.21V563.23H31.46V509.48Z" stroke="#177E89" stroke-opacity="0.2"/>
<path d="M1187.45 423.42H1230.84V466.81H1187.45V423.42Z" fill="#DB3069" fill-opacity="0.2"/>
<path d="M720.91 536.95H760.11V576.15H720.91V536.95Z" stroke="#DF9A57" stroke-opacity="0.2"/>
<path d="M649.38 134.94H688.57V174.13H649.38V134.94Z" fill="#DB3069" fill-opacity="0.2"/>
<path d="M491.38 382.45H509.69V400.76H491.38V382.45Z" stroke="#177E89" stroke-opacity="0.2"/>
<path d="M584.66 318.92C584.66 329.701 588.943 340.041 596.566 347.664C604.189 355.287 614.529 359.57 625.31 359.57C636.091 359.57 646.431 355.287 654.054 347.664C661.677 340.041 665.96 329.701 665.96 318.92C665.96 308.139 661.677 297.8 654.054 290.176C646.431 282.553 636.091 278.27 625.31 278.27C614.529 278.27 604.189 282.553 596.566 290.176C588.943 297.8 584.66 308.139 584.66 318.92V318.92Z" stroke="#DF9A57" stroke-opacity="0.2"/>
<path d="M1199.64 260.28C1199.64 274.567 1205.32 288.269 1215.42 298.372C1225.52 308.474 1239.22 314.15 1253.51 314.15C1267.8 314.15 1281.5 308.474 1291.6 298.372C1301.7 288.269 1307.38 274.567 1307.38 260.28C1307.38 245.993 1301.7 232.291 1291.6 222.188C1281.5 212.086 1267.8 206.41 1253.51 206.41C1239.22 206.41 1225.52 212.086 1215.42 222.188C1205.32 232.291 1199.64 245.993 1199.64 260.28V260.28Z" fill="#177E89" fill-opacity="0.2"/>
<path d="M263.77 175.74H309.92V192.41H263.77V175.74Z" stroke="#DF9A57" stroke-opacity="0.2"/>
<path d="M1201.02 276.1H1226.97V302.05H1201.02V276.1Z" stroke="#177E89" stroke-opacity="0.2"/>
<path d="M1157.67 390.96C1157.43 390.489 1157.09 390.073 1156.69 389.734C1156.28 389.396 1155.81 389.144 1155.3 388.993C1154.8 388.842 1154.26 388.794 1153.74 388.854C1153.21 388.914 1152.71 389.08 1152.25 389.341C1151.79 389.602 1151.38 389.954 1151.06 390.375C1150.74 390.796 1150.51 391.277 1150.38 391.79C1150.25 392.303 1150.23 392.836 1150.31 393.359C1150.39 393.881 1150.58 394.382 1150.86 394.83L1157.67 390.96Z" stroke="#DB3069" stroke-opacity="0.2"/>
<path d="M1058.13 158.45C1058.15 156.174 1057.73 153.916 1056.88 151.805C1056.03 149.694 1054.77 147.771 1053.17 146.146C1051.58 144.521 1049.68 143.226 1047.59 142.334C1045.49 141.443 1043.25 140.972 1040.97 140.95C1038.69 140.928 1036.44 141.354 1034.33 142.204C1032.21 143.054 1030.29 144.312 1028.67 145.906C1027.04 147.499 1025.75 149.397 1024.85 151.491C1023.96 153.585 1023.49 155.834 1023.47 158.11L1058.13 158.45Z" stroke="#177E89" stroke-opacity="0.2"/>
<path d="M1374.33 94.37C1380.13 94.3042 1385.85 93.0888 1391.17 90.7943C1396.5 88.4997 1401.31 85.1717 1405.34 81.003C1409.36 76.8343 1412.52 71.9079 1414.63 66.5092C1416.74 61.1106 1417.76 55.3471 1417.62 49.5528C1417.49 43.7584 1416.2 38.0485 1413.84 32.7539C1411.49 27.4593 1408.1 22.6854 1403.88 18.7087C1399.67 14.732 1394.7 11.6318 1389.28 9.58756C1383.86 7.54335 1378.08 6.59586 1372.29 6.80001L1374.33 94.37Z" fill="#DB3069" fill-opacity="0.2"/>
<path d="M1416.41 366.85C1402.17 362.803 1386.91 364.576 1373.99 371.781C1361.06 378.985 1351.52 391.03 1347.47 405.265C1343.43 419.501 1345.2 434.761 1352.41 447.689C1359.61 460.616 1371.65 470.153 1385.89 474.2L1416.41 366.85Z" fill="#DB3069" fill-opacity="0.2"/>
<path d="M1210.45 206.84H1263.46V259.85H1210.45V206.84Z" fill="#DF9A57" fill-opacity="0.2"/>
<path d="M1163.48 361.03H1190.17V361.22H1163.48V361.03Z" fill="#DB3069" fill-opacity="0.2"/>
<path d="M54.13 464.95C54.13 469.858 55.0966 474.717 56.9746 479.251C58.8526 483.785 61.6053 487.904 65.0754 491.375C68.5455 494.845 72.6652 497.597 77.1991 499.475C81.7331 501.353 86.5925 502.32 91.5 502.32C96.4075 502.32 101.267 501.353 105.801 499.475C110.335 497.597 114.454 494.845 117.925 491.375C121.395 487.904 124.147 483.785 126.025 479.251C127.903 474.717 128.87 469.858 128.87 464.95C128.87 455.039 124.933 445.534 117.925 438.525C110.916 431.517 101.411 427.58 91.5 427.58C81.5889 427.58 72.0837 431.517 65.0754 438.525C58.0672 445.534 54.13 455.039 54.13 464.95V464.95Z" fill="#177E89" fill-opacity="0.2"/>
<path d="M873.01 440.98C873.01 443.038 873.828 445.012 875.283 446.467C876.738 447.922 878.712 448.74 880.77 448.74C882.828 448.74 884.802 447.922 886.257 446.467C887.712 445.012 888.53 443.038 888.53 440.98C888.53 438.922 887.712 436.948 886.257 435.493C884.802 434.038 882.828 433.22 880.77 433.22C878.712 433.22 876.738 434.038 875.283 435.493C873.828 436.948 873.01 438.922 873.01 440.98V440.98Z" fill="#177E89" fill-opacity="0.2"/>
<path d="M1033.75 504.22H1062.74V536.04H1033.75V504.22Z" stroke="#DF9A57" stroke-opacity="0.2"/>
<path d="M852.94 391.68C848.988 401.74 849.195 412.957 853.514 422.865C857.832 432.772 865.91 440.558 875.97 444.51C886.03 448.462 897.247 448.255 907.155 443.936C917.062 439.617 924.848 431.54 928.8 421.48L852.94 391.68Z" fill="#DB3069" fill-opacity="0.2"/>
<path d="M1219.58 425.77H1245.3V451.49H1219.58V425.77Z" fill="#DB3069" fill-opacity="0.2"/>
<path d="M20.79 98.25C20.79 102.631 21.6529 106.969 23.3294 111.016C25.0059 115.064 27.4631 118.741 30.5609 121.839C33.6587 124.937 37.3362 127.394 41.3837 129.071C45.4311 130.747 49.7691 131.61 54.15 131.61C58.5309 131.61 62.8689 130.747 66.9163 129.071C70.9637 127.394 74.6413 124.937 77.7391 121.839C80.8368 118.741 83.2941 115.064 84.9706 111.016C86.6471 106.969 87.51 102.631 87.51 98.25C87.51 89.4024 83.9953 80.9171 77.7391 74.6609C71.4828 68.4047 62.9976 64.89 54.15 64.89C45.3024 64.89 36.8171 68.4047 30.5609 74.6609C24.3047 80.9171 20.79 89.4024 20.79 98.25V98.25Z" fill="#177E89" fill-opacity="0.2"/>
<path d="M296.91 130.74C294.773 133.265 293.156 136.189 292.153 139.341C291.15 142.494 290.78 145.814 291.065 149.11C291.35 152.406 292.284 155.613 293.814 158.547C295.343 161.481 297.438 164.083 299.977 166.204C302.516 168.325 305.449 169.923 308.608 170.906C311.767 171.888 315.089 172.237 318.384 171.931C321.678 171.625 324.879 170.67 327.803 169.122C330.726 167.574 333.315 165.463 335.42 162.91L296.91 130.74Z" stroke="#DB3069" stroke-opacity="0.2"/>
<path d="M729.17 357.42C733.495 361.222 738.531 364.128 743.988 365.97C749.444 367.812 755.211 368.553 760.956 368.15C766.7 367.747 772.307 366.208 777.453 363.623C782.599 361.037 787.18 357.457 790.932 353.088C794.684 348.72 797.532 343.65 799.311 338.173C801.09 332.696 801.764 326.921 801.295 321.181C800.826 315.442 799.223 309.853 796.579 304.737C793.935 299.621 790.301 295.081 785.89 291.38L729.17 357.42Z" stroke="#DF9A57" stroke-opacity="0.2"/>
<path d="M930.31 160.28H985.5V215.47H930.31V160.28Z" fill="#DB3069" fill-opacity="0.2"/>
</g>
<defs>
<clipPath id="clip0_3_450">
<rect width="1440" height="560" fill="white"/>
</clipPath>
</defs>
</svg>
