<svg width="1440" height="560" viewBox="0 0 1440 560" fill="none" xmlns="http://www.w3.org/2000/svg">
<g clip-path="url(#clip0_1_2)">
<path d="M36 24L24 36L36 24Z" stroke="#DB3069" stroke-opacity="0.3"/>
<path d="M27 90C27 90.7956 27.3161 91.5587 27.8787 92.1213C28.4413 92.6839 29.2044 93 30 93C30.7956 93 31.5587 92.6839 32.1213 92.1213C32.6839 91.5587 33 90.7956 33 90C33 89.2044 32.6839 88.4413 32.1213 87.8787C31.5587 87.3161 30.7956 87 30 87C29.2044 87 28.4413 87.3161 27.8787 87.8787C27.3161 88.4413 27 89.2044 27 90V90Z" stroke="#DF9A57" stroke-opacity="0.3"/>
<path d="M36 144L24 156L36 144Z" stroke="#DB3069" stroke-opacity="0.3"/>
<path d="M25 210C25 211.326 25.5268 212.598 26.4645 213.536C27.4021 214.473 28.6739 215 30 215C31.3261 215 32.5979 214.473 33.5355 213.536C34.4732 212.598 35 211.326 35 210C35 208.674 34.4732 207.402 33.5355 206.464C32.5979 205.527 31.3261 205 30 205C28.6739 205 27.4021 205.527 26.4645 206.464C25.5268 207.402 25 208.674 25 210V210Z" stroke="#DB3069" stroke-opacity="0.3"/>
<path d="M36 264L24 276L36 264Z" stroke="#177E89" stroke-opacity="0.3"/>
<path d="M25 330C25 331.326 25.5268 332.598 26.4645 333.536C27.4021 334.473 28.6739 335 30 335C31.3261 335 32.5979 334.473 33.5355 333.536C34.4732 332.598 35 331.326 35 330C35 328.674 34.4732 327.402 33.5355 326.464C32.5979 325.527 31.3261 325 30 325C28.6739 325 27.4021 325.527 26.4645 326.464C25.5268 327.402 25 328.674 25 330V330Z" stroke="#DB3069" stroke-opacity="0.3"/>
<path d="M36 384L24 396L36 384Z" stroke="#DB3069" stroke-opacity="0.3"/>
<path d="M36 444L24 456L36 444Z" stroke="#DF9A57" stroke-opacity="0.3"/>
<path d="M27 510C27 510.796 27.3161 511.559 27.8787 512.121C28.4413 512.684 29.2044 513 30 513C30.7956 513 31.5587 512.684 32.1213 512.121C32.6839 511.559 33 510.796 33 510C33 509.204 32.6839 508.441 32.1213 507.879C31.5587 507.316 30.7956 507 30 507C29.2044 507 28.4413 507.316 27.8787 507.879C27.3161 508.441 27 509.204 27 510V510Z" stroke="#DF9A57" stroke-opacity="0.3"/>
<path d="M96 24L84 36L96 24Z" stroke="#177E89" stroke-opacity="0.3"/>
<path d="M85 90C85 91.3261 85.5268 92.5979 86.4645 93.5355C87.4021 94.4732 88.6739 95 90 95C91.3261 95 92.5979 94.4732 93.5355 93.5355C94.4732 92.5979 95 91.3261 95 90C95 88.6739 94.4732 87.4021 93.5355 86.4645C92.5979 85.5268 91.3261 85 90 85C88.6739 85 87.4021 85.5268 86.4645 86.4645C85.5268 87.4021 85 88.6739 85 90V90Z" stroke="#DF9A57" stroke-opacity="0.3"/>
<path d="M85 150C85 151.326 85.5268 152.598 86.4645 153.536C87.4021 154.473 88.6739 155 90 155C91.3261 155 92.5979 154.473 93.5355 153.536C94.4732 152.598 95 151.326 95 150C95 148.674 94.4732 147.402 93.5355 146.464C92.5979 145.527 91.3261 145 90 145C88.6739 145 87.4021 145.527 86.4645 146.464C85.5268 147.402 85 148.674 85 150V150Z" stroke="#DB3069" stroke-opacity="0.3"/>
<path d="M92 208L88 212L92 208Z" stroke="#177E89" stroke-opacity="0.3"/>
<path d="M96 264L84 276L96 264Z" stroke="#DB3069" stroke-opacity="0.3"/>
<path d="M89 330C89 330.265 89.1054 330.52 89.2929 330.707C89.4804 330.895 89.7348 331 90 331C90.2652 331 90.5196 330.895 90.7071 330.707C90.8946 330.52 91 330.265 91 330C91 329.735 90.8946 329.48 90.7071 329.293C90.5196 329.105 90.2652 329 90 329C89.7348 329 89.4804 329.105 89.2929 329.293C89.1054 329.48 89 329.735 89 330V330Z" stroke="#DB3069" stroke-opacity="0.3"/>
<path d="M96 384L84 396L96 384Z" stroke="#DF9A57" stroke-opacity="0.3"/>
<path d="M92 448L88 452L92 448Z" stroke="#DF9A57" stroke-opacity="0.3"/>
<path d="M96 504L84 516L96 504Z" stroke="#177E89" stroke-opacity="0.3"/>
<path d="M156 24L144 36L156 24Z" stroke="#177E89" stroke-opacity="0.3"/>
<path d="M180 60L120 120L180 60Z" stroke="#DB3069" stroke-opacity="0.3" stroke-width="3"/>
<path d="M156 144L144 156L156 144Z" stroke="#DF9A57" stroke-opacity="0.3"/>
<path d="M145 210C145 211.326 145.527 212.598 146.464 213.536C147.402 214.473 148.674 215 150 215C151.326 215 152.598 214.473 153.536 213.536C154.473 212.598 155 211.326 155 210C155 208.674 154.473 207.402 153.536 206.464C152.598 205.527 151.326 205 150 205C148.674 205 147.402 205.527 146.464 206.464C145.527 207.402 145 208.674 145 210V210Z" stroke="#DF9A57" stroke-opacity="0.3"/>
<path d="M145 270C145 271.326 145.527 272.598 146.464 273.536C147.402 274.473 148.674 275 150 275C151.326 275 152.598 274.473 153.536 273.536C154.473 272.598 155 271.326 155 270C155 268.674 154.473 267.402 153.536 266.464C152.598 265.527 151.326 265 150 265C148.674 265 147.402 265.527 146.464 266.464C145.527 267.402 145 268.674 145 270V270Z" stroke="#DB3069" stroke-opacity="0.3"/>
<path d="M152 328L148 332L152 328Z" stroke="#DB3069" stroke-opacity="0.3"/>
<path d="M152 388L148 392L152 388Z" stroke="#DB3069" stroke-opacity="0.3"/>
<path d="M156 444L144 456L156 444Z" stroke="#DF9A57" stroke-opacity="0.3"/>
<path d="M156 504L144 516L156 504Z" stroke="#DB3069" stroke-opacity="0.3"/>
<path d="M212 28L208 32L212 28Z" stroke="#DB3069" stroke-opacity="0.3"/>
<path d="M209 90C209 90.2652 209.105 90.5196 209.293 90.7071C209.48 90.8946 209.735 91 210 91C210.265 91 210.52 90.8946 210.707 90.7071C210.895 90.5196 211 90.2652 211 90C211 89.7348 210.895 89.4804 210.707 89.2929C210.52 89.1054 210.265 89 210 89C209.735 89 209.48 89.1054 209.293 89.2929C209.105 89.4804 209 89.7348 209 90V90Z" stroke="#DB3069" stroke-opacity="0.3"/>
<path d="M212 148L208 152L212 148Z" stroke="#DB3069" stroke-opacity="0.3"/>
<path d="M216 204L204 216L216 204Z" stroke="#DF9A57" stroke-opacity="0.3"/>
<path d="M209 270C209 270.265 209.105 270.52 209.293 270.707C209.48 270.895 209.735 271 210 271C210.265 271 210.52 270.895 210.707 270.707C210.895 270.52 211 270.265 211 270C211 269.735 210.895 269.48 210.707 269.293C210.52 269.105 210.265 269 210 269C209.735 269 209.48 269.105 209.293 269.293C209.105 269.48 209 269.735 209 270V270Z" stroke="#DB3069" stroke-opacity="0.3"/>
<path d="M205 330C205 331.326 205.527 332.598 206.464 333.536C207.402 334.473 208.674 335 210 335C211.326 335 212.598 334.473 213.536 333.536C214.473 332.598 215 331.326 215 330C215 328.674 214.473 327.402 213.536 326.464C212.598 325.527 211.326 325 210 325C208.674 325 207.402 325.527 206.464 326.464C205.527 327.402 205 328.674 205 330V330Z" stroke="#177E89" stroke-opacity="0.3"/>
<path d="M205 390C205 391.326 205.527 392.598 206.464 393.536C207.402 394.473 208.674 395 210 395C211.326 395 212.598 394.473 213.536 393.536C214.473 392.598 215 391.326 215 390C215 388.674 214.473 387.402 213.536 386.464C212.598 385.527 211.326 385 210 385C208.674 385 207.402 385.527 206.464 386.464C205.527 387.402 205 388.674 205 390V390Z" stroke="#DF9A57" stroke-opacity="0.3"/>
<path d="M216 444L204 456L216 444Z" stroke="#177E89" stroke-opacity="0.3"/>
<path d="M212 508L208 512L212 508Z" stroke="#DF9A57" stroke-opacity="0.3"/>
<path d="M265 30C265 31.3261 265.527 32.5979 266.464 33.5355C267.402 34.4732 268.674 35 270 35C271.326 35 272.598 34.4732 273.536 33.5355C274.473 32.5979 275 31.3261 275 30C275 28.6739 274.473 27.4021 273.536 26.4645C272.598 25.5268 271.326 25 270 25C268.674 25 267.402 25.5268 266.464 26.4645C265.527 27.4021 265 28.6739 265 30V30Z" stroke="#DB3069" stroke-opacity="0.3"/>
<path d="M265 90C265 91.3261 265.527 92.5979 266.464 93.5355C267.402 94.4732 268.674 95 270 95C271.326 95 272.598 94.4732 273.536 93.5355C274.473 92.5979 275 91.3261 275 90C275 88.6739 274.473 87.4021 273.536 86.4645C272.598 85.5268 271.326 85 270 85C268.674 85 267.402 85.5268 266.464 86.4645C265.527 87.4021 265 88.6739 265 90V90Z" stroke="#DB3069" stroke-opacity="0.3"/>
<path d="M276 144L264 156L276 144Z" stroke="#DF9A57" stroke-opacity="0.3"/>
<path d="M272 208L268 212L272 208Z" stroke="#DB3069" stroke-opacity="0.3"/>
<path d="M276 264L264 276L276 264Z" stroke="#DB3069" stroke-opacity="0.3"/>
<path d="M267 330C267 330.796 267.316 331.559 267.879 332.121C268.441 332.684 269.204 333 270 333C270.796 333 271.559 332.684 272.121 332.121C272.684 331.559 273 330.796 273 330C273 329.204 272.684 328.441 272.121 327.879C271.559 327.316 270.796 327 270 327C269.204 327 268.441 327.316 267.879 327.879C267.316 328.441 267 329.204 267 330V330Z" stroke="#DF9A57" stroke-opacity="0.3"/>
<path d="M265 390C265 391.326 265.527 392.598 266.464 393.536C267.402 394.473 268.674 395 270 395C271.326 395 272.598 394.473 273.536 393.536C274.473 392.598 275 391.326 275 390C275 388.674 274.473 387.402 273.536 386.464C272.598 385.527 271.326 385 270 385C268.674 385 267.402 385.527 266.464 386.464C265.527 387.402 265 388.674 265 390V390Z" stroke="#DB3069" stroke-opacity="0.3"/>
<path d="M265 450C265 451.326 265.527 452.598 266.464 453.536C267.402 454.473 268.674 455 270 455C271.326 455 272.598 454.473 273.536 453.536C274.473 452.598 275 451.326 275 450C275 448.674 274.473 447.402 273.536 446.464C272.598 445.527 271.326 445 270 445C268.674 445 267.402 445.527 266.464 446.464C265.527 447.402 265 448.674 265 450V450Z" stroke="#DB3069" stroke-opacity="0.3"/>
<path d="M267 510C267 510.796 267.316 511.559 267.879 512.121C268.441 512.684 269.204 513 270 513C270.796 513 271.559 512.684 272.121 512.121C272.684 511.559 273 510.796 273 510C273 509.204 272.684 508.441 272.121 507.879C271.559 507.316 270.796 507 270 507C269.204 507 268.441 507.316 267.879 507.879C267.316 508.441 267 509.204 267 510V510Z" stroke="#DB3069" stroke-opacity="0.3"/>
<path d="M327 30C327 30.7956 327.316 31.5587 327.879 32.1213C328.441 32.6839 329.204 33 330 33C330.796 33 331.559 32.6839 332.121 32.1213C332.684 31.5587 333 30.7956 333 30C333 29.2044 332.684 28.4413 332.121 27.8787C331.559 27.3161 330.796 27 330 27C329.204 27 328.441 27.3161 327.879 27.8787C327.316 28.4413 327 29.2044 327 30V30Z" stroke="#DB3069" stroke-opacity="0.3"/>
<path d="M329 90C329 90.2652 329.105 90.5196 329.293 90.7071C329.48 90.8946 329.735 91 330 91C330.265 91 330.52 90.8946 330.707 90.7071C330.895 90.5196 331 90.2652 331 90C331 89.7348 330.895 89.4804 330.707 89.2929C330.52 89.1054 330.265 89 330 89C329.735 89 329.48 89.1054 329.293 89.2929C329.105 89.4804 329 89.7348 329 90V90Z" stroke="#DF9A57" stroke-opacity="0.3"/>
<path d="M336 144L324 156L336 144Z" stroke="#DB3069" stroke-opacity="0.3"/>
<path d="M336 204L324 216L336 204Z" stroke="#177E89" stroke-opacity="0.3"/>
<path d="M327 270C327 270.796 327.316 271.559 327.879 272.121C328.441 272.684 329.204 273 330 273C330.796 273 331.559 272.684 332.121 272.121C332.684 271.559 333 270.796 333 270C333 269.204 332.684 268.441 332.121 267.879C331.559 267.316 330.796 267 330 267C329.204 267 328.441 267.316 327.879 267.879C327.316 268.441 327 269.204 327 270V270Z" stroke="#DF9A57" stroke-opacity="0.3"/>
<path d="M336 324L324 336L336 324Z" stroke="#177E89" stroke-opacity="0.3"/>
<path d="M360 360L300 420L360 360Z" stroke="#DF9A57" stroke-opacity="0.3" stroke-width="3"/>
<path d="M336 444L324 456L336 444Z" stroke="#177E89" stroke-opacity="0.3"/>
<path d="M332 508L328 512L332 508Z" stroke="#177E89" stroke-opacity="0.3"/>
<path d="M420 0L360 60L420 0Z" stroke="#DB3069" stroke-opacity="0.3" stroke-width="3"/>
<path d="M385 90C385 91.3261 385.527 92.5979 386.464 93.5355C387.402 94.4732 388.674 95 390 95C391.326 95 392.598 94.4732 393.536 93.5355C394.473 92.5979 395 91.3261 395 90C395 88.6739 394.473 87.4021 393.536 86.4645C392.598 85.5268 391.326 85 390 85C388.674 85 387.402 85.5268 386.464 86.4645C385.527 87.4021 385 88.6739 385 90V90Z" stroke="#177E89" stroke-opacity="0.3"/>
<path d="M389 150C389 150.265 389.105 150.52 389.293 150.707C389.48 150.895 389.735 151 390 151C390.265 151 390.52 150.895 390.707 150.707C390.895 150.52 391 150.265 391 150C391 149.735 390.895 149.48 390.707 149.293C390.52 149.105 390.265 149 390 149C389.735 149 389.48 149.105 389.293 149.293C389.105 149.48 389 149.735 389 150V150Z" stroke="#DB3069" stroke-opacity="0.3"/>
<path d="M396 204L384 216L396 204Z" stroke="#177E89" stroke-opacity="0.3"/>
<path d="M389 270C389 270.265 389.105 270.52 389.293 270.707C389.48 270.895 389.735 271 390 271C390.265 271 390.52 270.895 390.707 270.707C390.895 270.52 391 270.265 391 270C391 269.735 390.895 269.48 390.707 269.293C390.52 269.105 390.265 269 390 269C389.735 269 389.48 269.105 389.293 269.293C389.105 269.48 389 269.735 389 270V270Z" stroke="#DF9A57" stroke-opacity="0.3"/>
<path d="M389 330C389 330.265 389.105 330.52 389.293 330.707C389.48 330.895 389.735 331 390 331C390.265 331 390.52 330.895 390.707 330.707C390.895 330.52 391 330.265 391 330C391 329.735 390.895 329.48 390.707 329.293C390.52 329.105 390.265 329 390 329C389.735 329 389.48 329.105 389.293 329.293C389.105 329.48 389 329.735 389 330V330Z" stroke="#DB3069" stroke-opacity="0.3"/>
<path d="M396 384L384 396L396 384Z" stroke="#DB3069" stroke-opacity="0.3"/>
<path d="M420 420L360 480L420 420Z" stroke="#DF9A57" stroke-opacity="0.3" stroke-width="3"/>
<path d="M385 510C385 511.326 385.527 512.598 386.464 513.536C387.402 514.473 388.674 515 390 515C391.326 515 392.598 514.473 393.536 513.536C394.473 512.598 395 511.326 395 510C395 508.674 394.473 507.402 393.536 506.464C392.598 505.527 391.326 505 390 505C388.674 505 387.402 505.527 386.464 506.464C385.527 507.402 385 508.674 385 510V510Z" stroke="#DF9A57" stroke-opacity="0.3"/>
<path d="M452 28L448 32L452 28Z" stroke="#177E89" stroke-opacity="0.3"/>
<path d="M449 90C449 90.2652 449.105 90.5196 449.293 90.7071C449.48 90.8946 449.735 91 450 91C450.265 91 450.52 90.8946 450.707 90.7071C450.895 90.5196 451 90.2652 451 90C451 89.7348 450.895 89.4804 450.707 89.2929C450.52 89.1054 450.265 89 450 89C449.735 89 449.48 89.1054 449.293 89.2929C449.105 89.4804 449 89.7348 449 90V90Z" stroke="#177E89" stroke-opacity="0.3"/>
<path d="M456 144L444 156L456 144Z" stroke="#DB3069" stroke-opacity="0.3"/>
<path d="M456 204L444 216L456 204Z" stroke="#DB3069" stroke-opacity="0.3"/>
<path d="M445 270C445 271.326 445.527 272.598 446.464 273.536C447.402 274.473 448.674 275 450 275C451.326 275 452.598 274.473 453.536 273.536C454.473 272.598 455 271.326 455 270C455 268.674 454.473 267.402 453.536 266.464C452.598 265.527 451.326 265 450 265C448.674 265 447.402 265.527 446.464 266.464C445.527 267.402 445 268.674 445 270V270Z" stroke="#177E89" stroke-opacity="0.3"/>
<path d="M456 324L444 336L456 324Z" stroke="#DF9A57" stroke-opacity="0.3"/>
<path d="M449 390C449 390.265 449.105 390.52 449.293 390.707C449.48 390.895 449.735 391 450 391C450.265 391 450.52 390.895 450.707 390.707C450.895 390.52 451 390.265 451 390C451 389.735 450.895 389.48 450.707 389.293C450.52 389.105 450.265 389 450 389C449.735 389 449.48 389.105 449.293 389.293C449.105 389.48 449 389.735 449 390V390Z" stroke="#DB3069" stroke-opacity="0.3"/>
<path d="M456 444L444 456L456 444Z" stroke="#DB3069" stroke-opacity="0.3"/>
<path d="M449 510C449 510.265 449.105 510.52 449.293 510.707C449.48 510.895 449.735 511 450 511C450.265 511 450.52 510.895 450.707 510.707C450.895 510.52 451 510.265 451 510C451 509.735 450.895 509.48 450.707 509.293C450.52 509.105 450.265 509 450 509C449.735 509 449.48 509.105 449.293 509.293C449.105 509.48 449 509.735 449 510V510Z" stroke="#DF9A57" stroke-opacity="0.3"/>
<path d="M516 24L504 36L516 24Z" stroke="#177E89" stroke-opacity="0.3"/>
<path d="M516 84L504 96L516 84Z" stroke="#177E89" stroke-opacity="0.3"/>
<path d="M516 144L504 156L516 144Z" stroke="#DB3069" stroke-opacity="0.3"/>
<path d="M516 204L504 216L516 204Z" stroke="#DB3069" stroke-opacity="0.3"/>
<path d="M516 264L504 276L516 264Z" stroke="#DB3069" stroke-opacity="0.3"/>
<path d="M505 330C505 331.326 505.527 332.598 506.464 333.536C507.402 334.473 508.674 335 510 335C511.326 335 512.598 334.473 513.536 333.536C514.473 332.598 515 331.326 515 330C515 328.674 514.473 327.402 513.536 326.464C512.598 325.527 511.326 325 510 325C508.674 325 507.402 325.527 506.464 326.464C505.527 327.402 505 328.674 505 330V330Z" stroke="#DB3069" stroke-opacity="0.3"/>
<path d="M507 390C507 390.796 507.316 391.559 507.879 392.121C508.441 392.684 509.204 393 510 393C510.796 393 511.559 392.684 512.121 392.121C512.684 391.559 513 390.796 513 390C513 389.204 512.684 388.441 512.121 387.879C511.559 387.316 510.796 387 510 387C509.204 387 508.441 387.316 507.879 387.879C507.316 388.441 507 389.204 507 390V390Z" stroke="#177E89" stroke-opacity="0.3"/>
<path d="M507 450C507 450.796 507.316 451.559 507.879 452.121C508.441 452.684 509.204 453 510 453C510.796 453 511.559 452.684 512.121 452.121C512.684 451.559 513 450.796 513 450C513 449.204 512.684 448.441 512.121 447.879C511.559 447.316 510.796 447 510 447C509.204 447 508.441 447.316 507.879 447.879C507.316 448.441 507 449.204 507 450V450Z" stroke="#DF9A57" stroke-opacity="0.3"/>
<path d="M505 510C505 511.326 505.527 512.598 506.464 513.536C507.402 514.473 508.674 515 510 515C511.326 515 512.598 514.473 513.536 513.536C514.473 512.598 515 511.326 515 510C515 508.674 514.473 507.402 513.536 506.464C512.598 505.527 511.326 505 510 505C508.674 505 507.402 505.527 506.464 506.464C505.527 507.402 505 508.674 505 510V510Z" stroke="#177E89" stroke-opacity="0.3"/>
<path d="M569 30C569 30.2652 569.105 30.5196 569.293 30.7071C569.48 30.8946 569.735 31 570 31C570.265 31 570.52 30.8946 570.707 30.7071C570.895 30.5196 571 30.2652 571 30C571 29.7348 570.895 29.4804 570.707 29.2929C570.52 29.1054 570.265 29 570 29C569.735 29 569.48 29.1054 569.293 29.2929C569.105 29.4804 569 29.7348 569 30V30Z" stroke="#177E89" stroke-opacity="0.3"/>
<path d="M567 90C567 90.7956 567.316 91.5587 567.879 92.1213C568.441 92.6839 569.204 93 570 93C570.796 93 571.559 92.6839 572.121 92.1213C572.684 91.5587 573 90.7956 573 90C573 89.2044 572.684 88.4413 572.121 87.8787C571.559 87.3161 570.796 87 570 87C569.204 87 568.441 87.3161 567.879 87.8787C567.316 88.4413 567 89.2044 567 90V90Z" stroke="#DF9A57" stroke-opacity="0.3"/>
<path d="M576 144L564 156L576 144Z" stroke="#DB3069" stroke-opacity="0.3"/>
<path d="M576 204L564 216L576 204Z" stroke="#DF9A57" stroke-opacity="0.3"/>
<path d="M576 264L564 276L576 264Z" stroke="#DF9A57" stroke-opacity="0.3"/>
<path d="M572 328L568 332L572 328Z" stroke="#DB3069" stroke-opacity="0.3"/>
<path d="M600 360L540 420L600 360Z" stroke="#DF9A57" stroke-opacity="0.3" stroke-width="3"/>
<path d="M576 444L564 456L576 444Z" stroke="#DF9A57" stroke-opacity="0.3"/>
<path d="M565 510C565 511.326 565.527 512.598 566.464 513.536C567.402 514.473 568.674 515 570 515C571.326 515 572.598 514.473 573.536 513.536C574.473 512.598 575 511.326 575 510C575 508.674 574.473 507.402 573.536 506.464C572.598 505.527 571.326 505 570 505C568.674 505 567.402 505.527 566.464 506.464C565.527 507.402 565 508.674 565 510V510Z" stroke="#177E89" stroke-opacity="0.3"/>
<path d="M625 30C625 31.3261 625.527 32.5979 626.464 33.5355C627.402 34.4732 628.674 35 630 35C631.326 35 632.598 34.4732 633.536 33.5355C634.473 32.5979 635 31.3261 635 30C635 28.6739 634.473 27.4021 633.536 26.4645C632.598 25.5268 631.326 25 630 25C628.674 25 627.402 25.5268 626.464 26.4645C625.527 27.4021 625 28.6739 625 30V30Z" stroke="#177E89" stroke-opacity="0.3"/>
<path d="M632 88L628 92L632 88Z" stroke="#DF9A57" stroke-opacity="0.3"/>
<path d="M625 150C625 151.326 625.527 152.598 626.464 153.536C627.402 154.473 628.674 155 630 155C631.326 155 632.598 154.473 633.536 153.536C634.473 152.598 635 151.326 635 150C635 148.674 634.473 147.402 633.536 146.464C632.598 145.527 631.326 145 630 145C628.674 145 627.402 145.527 626.464 146.464C625.527 147.402 625 148.674 625 150V150Z" stroke="#177E89" stroke-opacity="0.3"/>
<path d="M660 180L600 240L660 180Z" stroke="#DF9A57" stroke-opacity="0.3" stroke-width="3"/>
<path d="M636 264L624 276L636 264Z" stroke="#DF9A57" stroke-opacity="0.3"/>
<path d="M627 330C627 330.796 627.316 331.559 627.879 332.121C628.441 332.684 629.204 333 630 333C630.796 333 631.559 332.684 632.121 332.121C632.684 331.559 633 330.796 633 330C633 329.204 632.684 328.441 632.121 327.879C631.559 327.316 630.796 327 630 327C629.204 327 628.441 327.316 627.879 327.879C627.316 328.441 627 329.204 627 330V330Z" stroke="#DF9A57" stroke-opacity="0.3"/>
<path d="M636 384L624 396L636 384Z" stroke="#DB3069" stroke-opacity="0.3"/>
<path d="M636 444L624 456L636 444Z" stroke="#DB3069" stroke-opacity="0.3"/>
<path d="M636 504L624 516L636 504Z" stroke="#DF9A57" stroke-opacity="0.3"/>
<path d="M685 30C685 31.3261 685.527 32.5979 686.464 33.5355C687.402 34.4732 688.674 35 690 35C691.326 35 692.598 34.4732 693.536 33.5355C694.473 32.5979 695 31.3261 695 30C695 28.6739 694.473 27.4021 693.536 26.4645C692.598 25.5268 691.326 25 690 25C688.674 25 687.402 25.5268 686.464 26.4645C685.527 27.4021 685 28.6739 685 30V30Z" stroke="#177E89" stroke-opacity="0.3"/>
<path d="M685 90C685 91.3261 685.527 92.5979 686.464 93.5355C687.402 94.4732 688.674 95 690 95C691.326 95 692.598 94.4732 693.536 93.5355C694.473 92.5979 695 91.3261 695 90C695 88.6739 694.473 87.4021 693.536 86.4645C692.598 85.5268 691.326 85 690 85C688.674 85 687.402 85.5268 686.464 86.4645C685.527 87.4021 685 88.6739 685 90V90Z" stroke="#DB3069" stroke-opacity="0.3"/>
<path d="M696 144L684 156L696 144Z" stroke="#177E89" stroke-opacity="0.3"/>
<path d="M696 204L684 216L696 204Z" stroke="#DB3069" stroke-opacity="0.3"/>
<path d="M692 268L688 272L692 268Z" stroke="#177E89" stroke-opacity="0.3"/>
<path d="M696 324L684 336L696 324Z" stroke="#DB3069" stroke-opacity="0.3"/>
<path d="M685 390C685 391.326 685.527 392.598 686.464 393.536C687.402 394.473 688.674 395 690 395C691.326 395 692.598 394.473 693.536 393.536C694.473 392.598 695 391.326 695 390C695 388.674 694.473 387.402 693.536 386.464C692.598 385.527 691.326 385 690 385C688.674 385 687.402 385.527 686.464 386.464C685.527 387.402 685 388.674 685 390V390Z" stroke="#DF9A57" stroke-opacity="0.3"/>
<path d="M692 448L688 452L692 448Z" stroke="#177E89" stroke-opacity="0.3"/>
<path d="M689 510C689 510.265 689.105 510.52 689.293 510.707C689.48 510.895 689.735 511 690 511C690.265 511 690.52 510.895 690.707 510.707C690.895 510.52 691 510.265 691 510C691 509.735 690.895 509.48 690.707 509.293C690.52 509.105 690.265 509 690 509C689.735 509 689.48 509.105 689.293 509.293C689.105 509.48 689 509.735 689 510V510Z" stroke="#DB3069" stroke-opacity="0.3"/>
<path d="M756 24L744 36L756 24Z" stroke="#DB3069" stroke-opacity="0.3"/>
<path d="M747 90C747 90.7956 747.316 91.5587 747.879 92.1213C748.441 92.6839 749.204 93 750 93C750.796 93 751.559 92.6839 752.121 92.1213C752.684 91.5587 753 90.7956 753 90C753 89.2044 752.684 88.4413 752.121 87.8787C751.559 87.3161 750.796 87 750 87C749.204 87 748.441 87.3161 747.879 87.8787C747.316 88.4413 747 89.2044 747 90V90Z" stroke="#DF9A57" stroke-opacity="0.3"/>
<path d="M756 144L744 156L756 144Z" stroke="#DB3069" stroke-opacity="0.3"/>
<path d="M745 210C745 211.326 745.527 212.598 746.464 213.536C747.402 214.473 748.674 215 750 215C751.326 215 752.598 214.473 753.536 213.536C754.473 212.598 755 211.326 755 210C755 208.674 754.473 207.402 753.536 206.464C752.598 205.527 751.326 205 750 205C748.674 205 747.402 205.527 746.464 206.464C745.527 207.402 745 208.674 745 210V210Z" stroke="#DB3069" stroke-opacity="0.3"/>
<path d="M756 264L744 276L756 264Z" stroke="#177E89" stroke-opacity="0.3"/>
<path d="M745 330C745 331.326 745.527 332.598 746.464 333.536C747.402 334.473 748.674 335 750 335C751.326 335 752.598 334.473 753.536 333.536C754.473 332.598 755 331.326 755 330C755 328.674 754.473 327.402 753.536 326.464C752.598 325.527 751.326 325 750 325C748.674 325 747.402 325.527 746.464 326.464C745.527 327.402 745 328.674 745 330V330Z" stroke="#DB3069" stroke-opacity="0.3"/>
<path d="M756 384L744 396L756 384Z" stroke="#DB3069" stroke-opacity="0.3"/>
<path d="M756 444L744 456L756 444Z" stroke="#DF9A57" stroke-opacity="0.3"/>
<path d="M747 510C747 510.796 747.316 511.559 747.879 512.121C748.441 512.684 749.204 513 750 513C750.796 513 751.559 512.684 752.121 512.121C752.684 511.559 753 510.796 753 510C753 509.204 752.684 508.441 752.121 507.879C751.559 507.316 750.796 507 750 507C749.204 507 748.441 507.316 747.879 507.879C747.316 508.441 747 509.204 747 510V510Z" stroke="#DF9A57" stroke-opacity="0.3"/>
<path d="M816 24L804 36L816 24Z" stroke="#177E89" stroke-opacity="0.3"/>
<path d="M805 90C805 91.3261 805.527 92.5979 806.464 93.5355C807.402 94.4732 808.674 95 810 95C811.326 95 812.598 94.4732 813.536 93.5355C814.473 92.5979 815 91.3261 815 90C815 88.6739 814.473 87.4021 813.536 86.4645C812.598 85.5268 811.326 85 810 85C808.674 85 807.402 85.5268 806.464 86.4645C805.527 87.4021 805 88.6739 805 90V90Z" stroke="#DF9A57" stroke-opacity="0.3"/>
<path d="M805 150C805 151.326 805.527 152.598 806.464 153.536C807.402 154.473 808.674 155 810 155C811.326 155 812.598 154.473 813.536 153.536C814.473 152.598 815 151.326 815 150C815 148.674 814.473 147.402 813.536 146.464C812.598 145.527 811.326 145 810 145C808.674 145 807.402 145.527 806.464 146.464C805.527 147.402 805 148.674 805 150V150Z" stroke="#DB3069" stroke-opacity="0.3"/>
<path d="M812 208L808 212L812 208Z" stroke="#177E89" stroke-opacity="0.3"/>
<path d="M816 264L804 276L816 264Z" stroke="#DB3069" stroke-opacity="0.3"/>
<path d="M809 330C809 330.265 809.105 330.52 809.293 330.707C809.48 330.895 809.735 331 810 331C810.265 331 810.52 330.895 810.707 330.707C810.895 330.52 811 330.265 811 330C811 329.735 810.895 329.48 810.707 329.293C810.52 329.105 810.265 329 810 329C809.735 329 809.48 329.105 809.293 329.293C809.105 329.48 809 329.735 809 330V330Z" stroke="#DB3069" stroke-opacity="0.3"/>
<path d="M816 384L804 396L816 384Z" stroke="#DF9A57" stroke-opacity="0.3"/>
<path d="M812 448L808 452L812 448Z" stroke="#DF9A57" stroke-opacity="0.3"/>
<path d="M816 504L804 516L816 504Z" stroke="#177E89" stroke-opacity="0.3"/>
<path d="M876 24L864 36L876 24Z" stroke="#177E89" stroke-opacity="0.3"/>
<path d="M900 60L840 120L900 60Z" stroke="#DB3069" stroke-opacity="0.3" stroke-width="3"/>
<path d="M876 144L864 156L876 144Z" stroke="#DF9A57" stroke-opacity="0.3"/>
<path d="M865 210C865 211.326 865.527 212.598 866.464 213.536C867.402 214.473 868.674 215 870 215C871.326 215 872.598 214.473 873.536 213.536C874.473 212.598 875 211.326 875 210C875 208.674 874.473 207.402 873.536 206.464C872.598 205.527 871.326 205 870 205C868.674 205 867.402 205.527 866.464 206.464C865.527 207.402 865 208.674 865 210V210Z" stroke="#DF9A57" stroke-opacity="0.3"/>
<path d="M865 270C865 271.326 865.527 272.598 866.464 273.536C867.402 274.473 868.674 275 870 275C871.326 275 872.598 274.473 873.536 273.536C874.473 272.598 875 271.326 875 270C875 268.674 874.473 267.402 873.536 266.464C872.598 265.527 871.326 265 870 265C868.674 265 867.402 265.527 866.464 266.464C865.527 267.402 865 268.674 865 270V270Z" stroke="#DB3069" stroke-opacity="0.3"/>
<path d="M872 328L868 332L872 328Z" stroke="#DB3069" stroke-opacity="0.3"/>
<path d="M872 388L868 392L872 388Z" stroke="#DB3069" stroke-opacity="0.3"/>
<path d="M876 444L864 456L876 444Z" stroke="#DF9A57" stroke-opacity="0.3"/>
<path d="M876 504L864 516L876 504Z" stroke="#DB3069" stroke-opacity="0.3"/>
<path d="M932 28L928 32L932 28Z" stroke="#DB3069" stroke-opacity="0.3"/>
<path d="M929 90C929 90.2652 929.105 90.5196 929.293 90.7071C929.48 90.8946 929.735 91 930 91C930.265 91 930.52 90.8946 930.707 90.7071C930.895 90.5196 931 90.2652 931 90C931 89.7348 930.895 89.4804 930.707 89.2929C930.52 89.1054 930.265 89 930 89C929.735 89 929.48 89.1054 929.293 89.2929C929.105 89.4804 929 89.7348 929 90V90Z" stroke="#DB3069" stroke-opacity="0.3"/>
<path d="M932 148L928 152L932 148Z" stroke="#DB3069" stroke-opacity="0.3"/>
<path d="M936 204L924 216L936 204Z" stroke="#DF9A57" stroke-opacity="0.3"/>
<path d="M929 270C929 270.265 929.105 270.52 929.293 270.707C929.48 270.895 929.735 271 930 271C930.265 271 930.52 270.895 930.707 270.707C930.895 270.52 931 270.265 931 270C931 269.735 930.895 269.48 930.707 269.293C930.52 269.105 930.265 269 930 269C929.735 269 929.48 269.105 929.293 269.293C929.105 269.48 929 269.735 929 270V270Z" stroke="#DB3069" stroke-opacity="0.3"/>
<path d="M925 330C925 331.326 925.527 332.598 926.464 333.536C927.402 334.473 928.674 335 930 335C931.326 335 932.598 334.473 933.536 333.536C934.473 332.598 935 331.326 935 330C935 328.674 934.473 327.402 933.536 326.464C932.598 325.527 931.326 325 930 325C928.674 325 927.402 325.527 926.464 326.464C925.527 327.402 925 328.674 925 330V330Z" stroke="#177E89" stroke-opacity="0.3"/>
<path d="M925 390C925 391.326 925.527 392.598 926.464 393.536C927.402 394.473 928.674 395 930 395C931.326 395 932.598 394.473 933.536 393.536C934.473 392.598 935 391.326 935 390C935 388.674 934.473 387.402 933.536 386.464C932.598 385.527 931.326 385 930 385C928.674 385 927.402 385.527 926.464 386.464C925.527 387.402 925 388.674 925 390V390Z" stroke="#DF9A57" stroke-opacity="0.3"/>
<path d="M936 444L924 456L936 444Z" stroke="#177E89" stroke-opacity="0.3"/>
<path d="M932 508L928 512L932 508Z" stroke="#DF9A57" stroke-opacity="0.3"/>
<path d="M985 30C985 31.3261 985.527 32.5979 986.464 33.5355C987.402 34.4732 988.674 35 990 35C991.326 35 992.598 34.4732 993.536 33.5355C994.473 32.5979 995 31.3261 995 30C995 28.6739 994.473 27.4021 993.536 26.4645C992.598 25.5268 991.326 25 990 25C988.674 25 987.402 25.5268 986.464 26.4645C985.527 27.4021 985 28.6739 985 30V30Z" stroke="#DB3069" stroke-opacity="0.3"/>
<path d="M985 90C985 91.3261 985.527 92.5979 986.464 93.5355C987.402 94.4732 988.674 95 990 95C991.326 95 992.598 94.4732 993.536 93.5355C994.473 92.5979 995 91.3261 995 90C995 88.6739 994.473 87.4021 993.536 86.4645C992.598 85.5268 991.326 85 990 85C988.674 85 987.402 85.5268 986.464 86.4645C985.527 87.4021 985 88.6739 985 90V90Z" stroke="#DB3069" stroke-opacity="0.3"/>
<path d="M996 144L984 156L996 144Z" stroke="#DF9A57" stroke-opacity="0.3"/>
<path d="M992 208L988 212L992 208Z" stroke="#DB3069" stroke-opacity="0.3"/>
<path d="M996 264L984 276L996 264Z" stroke="#DB3069" stroke-opacity="0.3"/>
<path d="M987 330C987 330.796 987.316 331.559 987.879 332.121C988.441 332.684 989.204 333 990 333C990.796 333 991.559 332.684 992.121 332.121C992.684 331.559 993 330.796 993 330C993 329.204 992.684 328.441 992.121 327.879C991.559 327.316 990.796 327 990 327C989.204 327 988.441 327.316 987.879 327.879C987.316 328.441 987 329.204 987 330V330Z" stroke="#DF9A57" stroke-opacity="0.3"/>
<path d="M985 390C985 391.326 985.527 392.598 986.464 393.536C987.402 394.473 988.674 395 990 395C991.326 395 992.598 394.473 993.536 393.536C994.473 392.598 995 391.326 995 390C995 388.674 994.473 387.402 993.536 386.464C992.598 385.527 991.326 385 990 385C988.674 385 987.402 385.527 986.464 386.464C985.527 387.402 985 388.674 985 390V390Z" stroke="#DB3069" stroke-opacity="0.3"/>
<path d="M985 450C985 451.326 985.527 452.598 986.464 453.536C987.402 454.473 988.674 455 990 455C991.326 455 992.598 454.473 993.536 453.536C994.473 452.598 995 451.326 995 450C995 448.674 994.473 447.402 993.536 446.464C992.598 445.527 991.326 445 990 445C988.674 445 987.402 445.527 986.464 446.464C985.527 447.402 985 448.674 985 450V450Z" stroke="#DB3069" stroke-opacity="0.3"/>
<path d="M987 510C987 510.796 987.316 511.559 987.879 512.121C988.441 512.684 989.204 513 990 513C990.796 513 991.559 512.684 992.121 512.121C992.684 511.559 993 510.796 993 510C993 509.204 992.684 508.441 992.121 507.879C991.559 507.316 990.796 507 990 507C989.204 507 988.441 507.316 987.879 507.879C987.316 508.441 987 509.204 987 510V510Z" stroke="#DB3069" stroke-opacity="0.3"/>
<path d="M1047 30C1047 30.7956 1047.32 31.5587 1047.88 32.1213C1048.44 32.6839 1049.2 33 1050 33C1050.8 33 1051.56 32.6839 1052.12 32.1213C1052.68 31.5587 1053 30.7956 1053 30C1053 29.2044 1052.68 28.4413 1052.12 27.8787C1051.56 27.3161 1050.8 27 1050 27C1049.2 27 1048.44 27.3161 1047.88 27.8787C1047.32 28.4413 1047 29.2044 1047 30V30Z" stroke="#DB3069" stroke-opacity="0.3"/>
<path d="M1049 90C1049 90.2652 1049.11 90.5196 1049.29 90.7071C1049.48 90.8946 1049.73 91 1050 91C1050.27 91 1050.52 90.8946 1050.71 90.7071C1050.89 90.5196 1051 90.2652 1051 90C1051 89.7348 1050.89 89.4804 1050.71 89.2929C1050.52 89.1054 1050.27 89 1050 89C1049.73 89 1049.48 89.1054 1049.29 89.2929C1049.11 89.4804 1049 89.7348 1049 90V90Z" stroke="#DF9A57" stroke-opacity="0.3"/>
<path d="M1056 144L1044 156L1056 144Z" stroke="#DB3069" stroke-opacity="0.3"/>
<path d="M1056 204L1044 216L1056 204Z" stroke="#177E89" stroke-opacity="0.3"/>
<path d="M1047 270C1047 270.796 1047.32 271.559 1047.88 272.121C1048.44 272.684 1049.2 273 1050 273C1050.8 273 1051.56 272.684 1052.12 272.121C1052.68 271.559 1053 270.796 1053 270C1053 269.204 1052.68 268.441 1052.12 267.879C1051.56 267.316 1050.8 267 1050 267C1049.2 267 1048.44 267.316 1047.88 267.879C1047.32 268.441 1047 269.204 1047 270V270Z" stroke="#DF9A57" stroke-opacity="0.3"/>
<path d="M1056 324L1044 336L1056 324Z" stroke="#177E89" stroke-opacity="0.3"/>
<path d="M1080 360L1020 420L1080 360Z" stroke="#DF9A57" stroke-opacity="0.3" stroke-width="3"/>
<path d="M1056 444L1044 456L1056 444Z" stroke="#177E89" stroke-opacity="0.3"/>
<path d="M1052 508L1048 512L1052 508Z" stroke="#177E89" stroke-opacity="0.3"/>
<path d="M1140 0L1080 60L1140 0Z" stroke="#DB3069" stroke-opacity="0.3" stroke-width="3"/>
<path d="M1105 90C1105 91.3261 1105.53 92.5979 1106.46 93.5355C1107.4 94.4732 1108.67 95 1110 95C1111.33 95 1112.6 94.4732 1113.54 93.5355C1114.47 92.5979 1115 91.3261 1115 90C1115 88.6739 1114.47 87.4021 1113.54 86.4645C1112.6 85.5268 1111.33 85 1110 85C1108.67 85 1107.4 85.5268 1106.46 86.4645C1105.53 87.4021 1105 88.6739 1105 90V90Z" stroke="#177E89" stroke-opacity="0.3"/>
<path d="M1109 150C1109 150.265 1109.11 150.52 1109.29 150.707C1109.48 150.895 1109.73 151 1110 151C1110.27 151 1110.52 150.895 1110.71 150.707C1110.89 150.52 1111 150.265 1111 150C1111 149.735 1110.89 149.48 1110.71 149.293C1110.52 149.105 1110.27 149 1110 149C1109.73 149 1109.48 149.105 1109.29 149.293C1109.11 149.48 1109 149.735 1109 150V150Z" stroke="#DB3069" stroke-opacity="0.3"/>
<path d="M1116 204L1104 216L1116 204Z" stroke="#177E89" stroke-opacity="0.3"/>
<path d="M1109 270C1109 270.265 1109.11 270.52 1109.29 270.707C1109.48 270.895 1109.73 271 1110 271C1110.27 271 1110.52 270.895 1110.71 270.707C1110.89 270.52 1111 270.265 1111 270C1111 269.735 1110.89 269.48 1110.71 269.293C1110.52 269.105 1110.27 269 1110 269C1109.73 269 1109.48 269.105 1109.29 269.293C1109.11 269.48 1109 269.735 1109 270V270Z" stroke="#DF9A57" stroke-opacity="0.3"/>
<path d="M1109 330C1109 330.265 1109.11 330.52 1109.29 330.707C1109.48 330.895 1109.73 331 1110 331C1110.27 331 1110.52 330.895 1110.71 330.707C1110.89 330.52 1111 330.265 1111 330C1111 329.735 1110.89 329.48 1110.71 329.293C1110.52 329.105 1110.27 329 1110 329C1109.73 329 1109.48 329.105 1109.29 329.293C1109.11 329.48 1109 329.735 1109 330V330Z" stroke="#DB3069" stroke-opacity="0.3"/>
<path d="M1116 384L1104 396L1116 384Z" stroke="#DB3069" stroke-opacity="0.3"/>
<path d="M1140 420L1080 480L1140 420Z" stroke="#DF9A57" stroke-opacity="0.3" stroke-width="3"/>
<path d="M1105 510C1105 511.326 1105.53 512.598 1106.46 513.536C1107.4 514.473 1108.67 515 1110 515C1111.33 515 1112.6 514.473 1113.54 513.536C1114.47 512.598 1115 511.326 1115 510C1115 508.674 1114.47 507.402 1113.54 506.464C1112.6 505.527 1111.33 505 1110 505C1108.67 505 1107.4 505.527 1106.46 506.464C1105.53 507.402 1105 508.674 1105 510V510Z" stroke="#DF9A57" stroke-opacity="0.3"/>
<path d="M1172 28L1168 32L1172 28Z" stroke="#177E89" stroke-opacity="0.3"/>
<path d="M1169 90C1169 90.2652 1169.11 90.5196 1169.29 90.7071C1169.48 90.8946 1169.73 91 1170 91C1170.27 91 1170.52 90.8946 1170.71 90.7071C1170.89 90.5196 1171 90.2652 1171 90C1171 89.7348 1170.89 89.4804 1170.71 89.2929C1170.52 89.1054 1170.27 89 1170 89C1169.73 89 1169.48 89.1054 1169.29 89.2929C1169.11 89.4804 1169 89.7348 1169 90V90Z" stroke="#177E89" stroke-opacity="0.3"/>
<path d="M1176 144L1164 156L1176 144Z" stroke="#DB3069" stroke-opacity="0.3"/>
<path d="M1176 204L1164 216L1176 204Z" stroke="#DB3069" stroke-opacity="0.3"/>
<path d="M1165 270C1165 271.326 1165.53 272.598 1166.46 273.536C1167.4 274.473 1168.67 275 1170 275C1171.33 275 1172.6 274.473 1173.54 273.536C1174.47 272.598 1175 271.326 1175 270C1175 268.674 1174.47 267.402 1173.54 266.464C1172.6 265.527 1171.33 265 1170 265C1168.67 265 1167.4 265.527 1166.46 266.464C1165.53 267.402 1165 268.674 1165 270V270Z" stroke="#177E89" stroke-opacity="0.3"/>
<path d="M1176 324L1164 336L1176 324Z" stroke="#DF9A57" stroke-opacity="0.3"/>
<path d="M1169 390C1169 390.265 1169.11 390.52 1169.29 390.707C1169.48 390.895 1169.73 391 1170 391C1170.27 391 1170.52 390.895 1170.71 390.707C1170.89 390.52 1171 390.265 1171 390C1171 389.735 1170.89 389.48 1170.71 389.293C1170.52 389.105 1170.27 389 1170 389C1169.73 389 1169.48 389.105 1169.29 389.293C1169.11 389.48 1169 389.735 1169 390V390Z" stroke="#DB3069" stroke-opacity="0.3"/>
<path d="M1176 444L1164 456L1176 444Z" stroke="#DB3069" stroke-opacity="0.3"/>
<path d="M1169 510C1169 510.265 1169.11 510.52 1169.29 510.707C1169.48 510.895 1169.73 511 1170 511C1170.27 511 1170.52 510.895 1170.71 510.707C1170.89 510.52 1171 510.265 1171 510C1171 509.735 1170.89 509.48 1170.71 509.293C1170.52 509.105 1170.27 509 1170 509C1169.73 509 1169.48 509.105 1169.29 509.293C1169.11 509.48 1169 509.735 1169 510V510Z" stroke="#DF9A57" stroke-opacity="0.3"/>
<path d="M1236 24L1224 36L1236 24Z" stroke="#177E89" stroke-opacity="0.3"/>
<path d="M1236 84L1224 96L1236 84Z" stroke="#177E89" stroke-opacity="0.3"/>
<path d="M1236 144L1224 156L1236 144Z" stroke="#DB3069" stroke-opacity="0.3"/>
<path d="M1236 204L1224 216L1236 204Z" stroke="#DB3069" stroke-opacity="0.3"/>
<path d="M1236 264L1224 276L1236 264Z" stroke="#DB3069" stroke-opacity="0.3"/>
<path d="M1225 330C1225 331.326 1225.53 332.598 1226.46 333.536C1227.4 334.473 1228.67 335 1230 335C1231.33 335 1232.6 334.473 1233.54 333.536C1234.47 332.598 1235 331.326 1235 330C1235 328.674 1234.47 327.402 1233.54 326.464C1232.6 325.527 1231.33 325 1230 325C1228.67 325 1227.4 325.527 1226.46 326.464C1225.53 327.402 1225 328.674 1225 330V330Z" stroke="#DB3069" stroke-opacity="0.3"/>
<path d="M1227 390C1227 390.796 1227.32 391.559 1227.88 392.121C1228.44 392.684 1229.2 393 1230 393C1230.8 393 1231.56 392.684 1232.12 392.121C1232.68 391.559 1233 390.796 1233 390C1233 389.204 1232.68 388.441 1232.12 387.879C1231.56 387.316 1230.8 387 1230 387C1229.2 387 1228.44 387.316 1227.88 387.879C1227.32 388.441 1227 389.204 1227 390V390Z" stroke="#177E89" stroke-opacity="0.3"/>
<path d="M1227 450C1227 450.796 1227.32 451.559 1227.88 452.121C1228.44 452.684 1229.2 453 1230 453C1230.8 453 1231.56 452.684 1232.12 452.121C1232.68 451.559 1233 450.796 1233 450C1233 449.204 1232.68 448.441 1232.12 447.879C1231.56 447.316 1230.8 447 1230 447C1229.2 447 1228.44 447.316 1227.88 447.879C1227.32 448.441 1227 449.204 1227 450V450Z" stroke="#DF9A57" stroke-opacity="0.3"/>
<path d="M1225 510C1225 511.326 1225.53 512.598 1226.46 513.536C1227.4 514.473 1228.67 515 1230 515C1231.33 515 1232.6 514.473 1233.54 513.536C1234.47 512.598 1235 511.326 1235 510C1235 508.674 1234.47 507.402 1233.54 506.464C1232.6 505.527 1231.33 505 1230 505C1228.67 505 1227.4 505.527 1226.46 506.464C1225.53 507.402 1225 508.674 1225 510V510Z" stroke="#177E89" stroke-opacity="0.3"/>
<path d="M1289 30C1289 30.2652 1289.11 30.5196 1289.29 30.7071C1289.48 30.8946 1289.73 31 1290 31C1290.27 31 1290.52 30.8946 1290.71 30.7071C1290.89 30.5196 1291 30.2652 1291 30C1291 29.7348 1290.89 29.4804 1290.71 29.2929C1290.52 29.1054 1290.27 29 1290 29C1289.73 29 1289.48 29.1054 1289.29 29.2929C1289.11 29.4804 1289 29.7348 1289 30V30Z" stroke="#177E89" stroke-opacity="0.3"/>
<path d="M1287 90C1287 90.7956 1287.32 91.5587 1287.88 92.1213C1288.44 92.6839 1289.2 93 1290 93C1290.8 93 1291.56 92.6839 1292.12 92.1213C1292.68 91.5587 1293 90.7956 1293 90C1293 89.2044 1292.68 88.4413 1292.12 87.8787C1291.56 87.3161 1290.8 87 1290 87C1289.2 87 1288.44 87.3161 1287.88 87.8787C1287.32 88.4413 1287 89.2044 1287 90V90Z" stroke="#DF9A57" stroke-opacity="0.3"/>
<path d="M1296 144L1284 156L1296 144Z" stroke="#DB3069" stroke-opacity="0.3"/>
<path d="M1296 204L1284 216L1296 204Z" stroke="#DF9A57" stroke-opacity="0.3"/>
<path d="M1296 264L1284 276L1296 264Z" stroke="#DF9A57" stroke-opacity="0.3"/>
<path d="M1292 328L1288 332L1292 328Z" stroke="#DB3069" stroke-opacity="0.3"/>
<path d="M1320 360L1260 420L1320 360Z" stroke="#DF9A57" stroke-opacity="0.3" stroke-width="3"/>
<path d="M1296 444L1284 456L1296 444Z" stroke="#DF9A57" stroke-opacity="0.3"/>
<path d="M1285 510C1285 511.326 1285.53 512.598 1286.46 513.536C1287.4 514.473 1288.67 515 1290 515C1291.33 515 1292.6 514.473 1293.54 513.536C1294.47 512.598 1295 511.326 1295 510C1295 508.674 1294.47 507.402 1293.54 506.464C1292.6 505.527 1291.33 505 1290 505C1288.67 505 1287.4 505.527 1286.46 506.464C1285.53 507.402 1285 508.674 1285 510V510Z" stroke="#177E89" stroke-opacity="0.3"/>
<path d="M1345 30C1345 31.3261 1345.53 32.5979 1346.46 33.5355C1347.4 34.4732 1348.67 35 1350 35C1351.33 35 1352.6 34.4732 1353.54 33.5355C1354.47 32.5979 1355 31.3261 1355 30C1355 28.6739 1354.47 27.4021 1353.54 26.4645C1352.6 25.5268 1351.33 25 1350 25C1348.67 25 1347.4 25.5268 1346.46 26.4645C1345.53 27.4021 1345 28.6739 1345 30V30Z" stroke="#177E89" stroke-opacity="0.3"/>
<path d="M1352 88L1348 92L1352 88Z" stroke="#DF9A57" stroke-opacity="0.3"/>
<path d="M1345 150C1345 151.326 1345.53 152.598 1346.46 153.536C1347.4 154.473 1348.67 155 1350 155C1351.33 155 1352.6 154.473 1353.54 153.536C1354.47 152.598 1355 151.326 1355 150C1355 148.674 1354.47 147.402 1353.54 146.464C1352.6 145.527 1351.33 145 1350 145C1348.67 145 1347.4 145.527 1346.46 146.464C1345.53 147.402 1345 148.674 1345 150V150Z" stroke="#177E89" stroke-opacity="0.3"/>
<path d="M1380 180L1320 240L1380 180Z" stroke="#DF9A57" stroke-opacity="0.3" stroke-width="3"/>
<path d="M1356 264L1344 276L1356 264Z" stroke="#DF9A57" stroke-opacity="0.3"/>
<path d="M1347 330C1347 330.796 1347.32 331.559 1347.88 332.121C1348.44 332.684 1349.2 333 1350 333C1350.8 333 1351.56 332.684 1352.12 332.121C1352.68 331.559 1353 330.796 1353 330C1353 329.204 1352.68 328.441 1352.12 327.879C1351.56 327.316 1350.8 327 1350 327C1349.2 327 1348.44 327.316 1347.88 327.879C1347.32 328.441 1347 329.204 1347 330V330Z" stroke="#DF9A57" stroke-opacity="0.3"/>
<path d="M1356 384L1344 396L1356 384Z" stroke="#DB3069" stroke-opacity="0.3"/>
<path d="M1356 444L1344 456L1356 444Z" stroke="#DB3069" stroke-opacity="0.3"/>
<path d="M1356 504L1344 516L1356 504Z" stroke="#DF9A57" stroke-opacity="0.3"/>
<path d="M1405 30C1405 31.3261 1405.53 32.5979 1406.46 33.5355C1407.4 34.4732 1408.67 35 1410 35C1411.33 35 1412.6 34.4732 1413.54 33.5355C1414.47 32.5979 1415 31.3261 1415 30C1415 28.6739 1414.47 27.4021 1413.54 26.4645C1412.6 25.5268 1411.33 25 1410 25C1408.67 25 1407.4 25.5268 1406.46 26.4645C1405.53 27.4021 1405 28.6739 1405 30V30Z" stroke="#177E89" stroke-opacity="0.3"/>
<path d="M1405 90C1405 91.3261 1405.53 92.5979 1406.46 93.5355C1407.4 94.4732 1408.67 95 1410 95C1411.33 95 1412.6 94.4732 1413.54 93.5355C1414.47 92.5979 1415 91.3261 1415 90C1415 88.6739 1414.47 87.4021 1413.54 86.4645C1412.6 85.5268 1411.33 85 1410 85C1408.67 85 1407.4 85.5268 1406.46 86.4645C1405.53 87.4021 1405 88.6739 1405 90V90Z" stroke="#DB3069" stroke-opacity="0.3"/>
<path d="M1416 144L1404 156L1416 144Z" stroke="#177E89" stroke-opacity="0.3"/>
<path d="M1416 204L1404 216L1416 204Z" stroke="#DB3069" stroke-opacity="0.3"/>
<path d="M1412 268L1408 272L1412 268Z" stroke="#177E89" stroke-opacity="0.3"/>
<path d="M1416 324L1404 336L1416 324Z" stroke="#DB3069" stroke-opacity="0.3"/>
<path d="M1405 390C1405 391.326 1405.53 392.598 1406.46 393.536C1407.4 394.473 1408.67 395 1410 395C1411.33 395 1412.6 394.473 1413.54 393.536C1414.47 392.598 1415 391.326 1415 390C1415 388.674 1414.47 387.402 1413.54 386.464C1412.6 385.527 1411.33 385 1410 385C1408.67 385 1407.4 385.527 1406.46 386.464C1405.53 387.402 1405 388.674 1405 390V390Z" stroke="#DF9A57" stroke-opacity="0.3"/>
<path d="M1412 448L1408 452L1412 448Z" stroke="#177E89" stroke-opacity="0.3"/>
<path d="M1409 510C1409 510.265 1409.11 510.52 1409.29 510.707C1409.48 510.895 1409.73 511 1410 511C1410.27 511 1410.52 510.895 1410.71 510.707C1410.89 510.52 1411 510.265 1411 510C1411 509.735 1410.89 509.48 1410.71 509.293C1410.52 509.105 1410.27 509 1410 509C1409.73 509 1409.48 509.105 1409.29 509.293C1409.11 509.48 1409 509.735 1409 510V510Z" stroke="#DB3069" stroke-opacity="0.3"/>
</g>
<defs>
<clipPath id="clip0_1_2">
<rect width="1440" height="560" fill="white"/>
</clipPath>
</defs>
</svg>
