<svg width="1606" height="925" viewBox="0 0 1606 925" fill="none" xmlns="http://www.w3.org/2000/svg">
<g clip-path="url(#clip0_33_4)">
<path d="M686.969 548.619C797.604 538.042 988 464 988 464H0V753.82C0 753.82 38.5938 679.779 120.927 732.666C203.26 785.553 218.698 700.934 308.75 791.899C398.802 882.865 499.146 770.744 530.021 700.934C560.896 631.123 576.333 559.197 686.969 548.619Z" fill="url(#paint0_linear_33_4)" stroke="#DF9A57"/>
<path d="M1281.88 379.701C1171.24 390.278 980.845 464.32 980.845 464.32H1968.85V174.499C1968.85 174.499 1930.25 248.541 1847.92 195.654C1765.58 142.767 1750.15 227.386 1660.1 136.421C1570.04 45.4553 1469.7 157.576 1438.82 227.386C1407.95 297.197 1392.51 369.123 1281.88 379.701Z" fill="url(#paint1_linear_33_4)" stroke="#DF9A57"/>
<line x1="1606" y1="464.5" y2="464.5" stroke="black" stroke-width="3"/>
<line x1="805.5" y1="20.0017" x2="804.5" y2="925.002" stroke="black" stroke-width="3"/>
<line x1="21" y1="437" x2="21" y2="489" stroke="black" stroke-width="2"/>
<line x1="103.421" y1="437" x2="103.421" y2="489" stroke="black" stroke-width="2"/>
<line x1="185.842" y1="437" x2="185.842" y2="489" stroke="black" stroke-width="2"/>
<line x1="268.263" y1="437" x2="268.263" y2="489" stroke="black" stroke-width="2"/>
<line x1="350.684" y1="437" x2="350.684" y2="489" stroke="black" stroke-width="2"/>
<line x1="433.105" y1="437" x2="433.105" y2="489" stroke="black" stroke-width="2"/>
<line x1="515.526" y1="437" x2="515.526" y2="489" stroke="black" stroke-width="2"/>
<line x1="597.947" y1="437" x2="597.947" y2="489" stroke="black" stroke-width="2"/>
<line x1="680.368" y1="437" x2="680.368" y2="489" stroke="black" stroke-width="2"/>
<line x1="927.631" y1="437" x2="927.631" y2="489" stroke="black" stroke-width="2"/>
<line x1="1010.05" y1="437" x2="1010.05" y2="489" stroke="black" stroke-width="2"/>
<line x1="1092.47" y1="437" x2="1092.47" y2="489" stroke="black" stroke-width="2"/>
<line x1="1174.89" y1="437" x2="1174.89" y2="489" stroke="black" stroke-width="2"/>
<line x1="1257.32" y1="437" x2="1257.32" y2="489" stroke="black" stroke-width="2"/>
<line x1="1339.74" y1="437" x2="1339.74" y2="489" stroke="black" stroke-width="2"/>
<line x1="1422.16" y1="437" x2="1422.16" y2="489" stroke="black" stroke-width="2"/>
<line x1="1504.58" y1="437" x2="1504.58" y2="489" stroke="black" stroke-width="2"/>
<line x1="1587" y1="437" x2="1587" y2="489" stroke="black" stroke-width="2"/>
<line x1="830" y1="21" x2="778" y2="21" stroke="black" stroke-width="2"/>
<line x1="830" y1="84.2142" x2="778" y2="84.2142" stroke="black" stroke-width="2"/>
<line x1="830" y1="147.429" x2="778" y2="147.429" stroke="black" stroke-width="2"/>
<line x1="830" y1="210.643" x2="778" y2="210.643" stroke="black" stroke-width="2"/>
<line x1="830" y1="273.857" x2="778" y2="273.857" stroke="black" stroke-width="2"/>
<line x1="830" y1="337.071" x2="778" y2="337.071" stroke="black" stroke-width="2"/>
<line x1="830" y1="400.286" x2="778" y2="400.286" stroke="black" stroke-width="2"/>
<line x1="830" y1="526.714" x2="778" y2="526.714" stroke="black" stroke-width="2"/>
<line x1="830" y1="589.929" x2="778" y2="589.929" stroke="black" stroke-width="2"/>
<line x1="830" y1="653.143" x2="778" y2="653.143" stroke="black" stroke-width="2"/>
<line x1="830" y1="716.357" x2="778" y2="716.357" stroke="black" stroke-width="2"/>
<line x1="830" y1="779.572" x2="778" y2="779.572" stroke="black" stroke-width="2"/>
<line x1="830" y1="842.786" x2="778" y2="842.786" stroke="black" stroke-width="2"/>
<line x1="830" y1="906" x2="778" y2="906" stroke="black" stroke-width="2"/>
<circle cx="1155" cy="406" r="8" fill="white" stroke="#DF9A57" stroke-width="4"/>
</g>
<defs>
<linearGradient id="paint0_linear_33_4" x1="506.865" y1="843.446" x2="473.521" y2="401.96" gradientUnits="userSpaceOnUse">
<stop stop-color="#DF9A57" stop-opacity="0.83"/>
<stop offset="1" stop-color="#DF9A57" stop-opacity="0.44"/>
</linearGradient>
<linearGradient id="paint1_linear_33_4" x1="1461.98" y1="84.874" x2="1495.32" y2="526.36" gradientUnits="userSpaceOnUse">
<stop stop-color="#DF9A57" stop-opacity="0.83"/>
<stop offset="1" stop-color="#DF9A57" stop-opacity="0.44"/>
</linearGradient>
<clipPath id="clip0_33_4">
<rect width="1606" height="925" fill="white"/>
</clipPath>
</defs>
</svg>
