<svg width="500" height="300" viewBox="0 0 500 300" fill="none" xmlns="http://www.w3.org/2000/svg">
<rect width="500" height="300" fill="#F5F5F5"/>
<rect x="15" y="24" width="401" height="29" rx="14.5" fill="#353535"/>
<rect x="443" y="24" width="29" height="29" rx="14.5" fill="#DF9A57"/>
<rect x="15" y="84" width="466" height="13" rx="6.5" fill="#353535"/>
<rect x="15" y="119" width="466" height="13" rx="6.5" fill="#353535"/>
<rect x="15" y="154" width="466" height="13" rx="6.5" fill="#787878"/>
<rect x="15" y="198" width="131" height="29" rx="12" fill="#DB3069"/>
<path d="M28 221L35.1499 212.768C39.2487 208.05 46.5063 207.845 50.8647 212.325L51.4052 212.88C55.5986 217.191 62.6215 216.849 66.3757 212.151V212.151C69.9266 207.707 76.465 207.119 80.7517 210.858L85.0237 214.584C88.9173 217.98 94.9115 217.165 97.7579 212.854V212.854C100.761 208.305 107.199 207.697 111 211.604L111.43 212.046C115.721 216.457 123.07 215.379 125.914 209.922L129 204" stroke="white" stroke-width="2" stroke-linecap="round"/>
<g filter="url(#filter0_d_123_18)">
<rect x="394" y="198" width="87" height="83" rx="12" fill="white"/>
</g>
<path d="M402.5 213L407.235 209.1C409.498 207.237 412.681 206.981 415.212 208.457L419.544 210.984C421.685 212.233 424.328 212.256 426.491 211.045L431.448 208.269C433.904 206.894 436.944 207.123 439.166 208.851L440.834 210.149C443.056 211.877 446.096 212.106 448.552 210.731L457 206" stroke="#353535" stroke-width="2" stroke-linecap="round"/>
<path d="M402 227L406.735 223.1C408.998 221.237 412.181 220.981 414.712 222.457L419.044 224.984C421.185 226.233 423.828 226.256 425.991 225.045L430.948 222.269C433.404 220.894 436.444 221.123 438.666 222.851L440.334 224.149C442.556 225.877 445.596 226.106 448.052 224.731L456.5 220" stroke="#353535" stroke-width="2" stroke-linecap="round"/>
<rect x="403" y="258" width="69" height="15" rx="6" fill="#DB3069"/>
<path d="M410 269L413.529 265.138C415.596 262.875 419.127 262.775 421.319 264.917L421.607 265.199C423.707 267.251 427.108 267.084 428.997 264.837V264.837C430.782 262.714 433.946 262.429 436.081 264.199L438.277 266.02C440.21 267.623 443.102 267.228 444.535 265.164V265.164C446.048 262.986 449.156 262.69 451.053 264.543L451.299 264.784C453.467 266.902 457.057 266.368 458.514 263.71L460 261" stroke="white" stroke-width="2" stroke-linecap="round"/>
<defs>
<filter id="filter0_d_123_18" x="388" y="196" width="99" height="95" filterUnits="userSpaceOnUse" color-interpolation-filters="sRGB">
<feFlood flood-opacity="0" result="BackgroundImageFix"/>
<feColorMatrix in="SourceAlpha" type="matrix" values="0 0 0 0 0 0 0 0 0 0 0 0 0 0 0 0 0 0 127 0" result="hardAlpha"/>
<feMorphology radius="2" operator="dilate" in="SourceAlpha" result="effect1_dropShadow_123_18"/>
<feOffset dy="4"/>
<feGaussianBlur stdDeviation="2"/>
<feComposite in2="hardAlpha" operator="out"/>
<feColorMatrix type="matrix" values="0 0 0 0 0 0 0 0 0 0 0 0 0 0 0 0 0 0 0.1 0"/>
<feBlend mode="normal" in2="BackgroundImageFix" result="effect1_dropShadow_123_18"/>
<feBlend mode="normal" in="SourceGraphic" in2="effect1_dropShadow_123_18" result="shape"/>
</filter>
</defs>
</svg>
