<svg width="970" height="334" viewBox="0 0 970 334" fill="none" xmlns="http://www.w3.org/2000/svg">
<g clip-path="url(#clip0_20_84)">
<path d="M159.975 36.0344C157.017 36.3613 154.797 38.8941 154.861 41.8721V82.1027V82.1007C154.839 83.6389 155.435 85.1229 156.514 86.2178C157.595 87.3128 159.067 87.9305 160.605 87.9305C162.141 87.9305 163.613 87.3128 164.694 86.2178C165.773 85.1229 166.368 83.6389 166.346 82.1007V41.8701V41.8721C166.382 40.2176 165.702 38.6273 164.481 37.5083C163.262 36.3913 161.619 35.8538 159.975 36.0343L159.975 36.0344ZM53.7498 67.6437H53.7518C51.5157 67.8623 49.6126 69.3643 48.8786 71.4881C48.1466 73.6118 48.7181 75.9702 50.3426 77.5224L84.7935 112.006V112.004C85.8684 113.111 87.3444 113.738 88.8866 113.746C90.4287 113.752 91.9087 113.137 92.9937 112.04C94.0786 110.943 94.6762 109.453 94.6522 107.911C94.6281 106.366 93.9863 104.896 92.8673 103.834L58.4164 69.3503C57.1991 68.1029 55.4845 67.4753 53.7518 67.6437L53.7498 67.6437ZM266.113 67.6437C264.847 67.8262 263.68 68.4278 262.794 69.3503L228.343 103.834C227.224 104.896 226.582 106.366 226.558 107.911C226.534 109.453 227.132 110.943 228.217 112.04C229.301 113.137 230.781 113.752 232.324 113.746C233.866 113.738 235.342 113.111 236.417 112.004L270.868 77.5204L270.87 77.5224C272.697 75.8037 273.198 73.0984 272.111 70.8381C271.022 68.576 268.595 67.2845 266.113 67.6434L266.113 67.6437ZM160.601 99.3433C127.386 99.3433 100.309 126.334 100.309 159.687C100.309 178.853 109.536 194.503 123.277 205.304V220.032C123.277 224.815 125.417 228.912 128.481 231.975C129.506 232.999 130.633 233.972 131.89 234.758V268.883C131.89 280.111 141.051 288.997 151.987 288.997H169.214C180.149 288.997 189.31 280.111 189.31 268.883V234.758C190.568 233.972 191.695 232.999 192.719 231.975C195.784 228.91 197.924 224.813 197.924 220.032V205.304C211.665 194.503 220.892 178.853 220.892 159.687C220.892 126.333 193.817 99.3433 160.599 99.3433H160.601ZM160.601 110.839C187.638 110.839 209.407 132.525 209.407 159.689C209.407 176.309 201.594 188.986 188.861 198.032H188.863C187.323 199.123 186.419 200.902 186.441 202.791V220.032C186.441 221.087 185.781 222.669 184.558 223.892C183.332 225.118 181.744 225.777 180.699 225.777H140.504C139.46 225.777 137.871 225.116 136.646 223.892C135.421 222.667 134.763 221.087 134.763 220.032V202.791C134.785 200.902 133.88 199.123 132.34 198.032C119.608 188.986 111.795 176.31 111.795 159.689C111.795 132.525 133.565 110.839 160.6 110.839H160.601ZM180.25 136.61C178.556 136.753 177.011 137.641 176.033 139.035L154.41 168.759L144.002 160.855H144.004C142.817 159.778 141.235 159.247 139.641 159.387C138.044 159.53 136.58 160.332 135.602 161.599C134.623 162.869 134.218 164.489 134.485 166.069C134.751 167.65 135.666 169.047 137.006 169.924L152.078 181.419C153.307 182.372 154.87 182.785 156.408 182.564C157.946 182.346 159.33 181.509 160.244 180.252L185.366 145.769H185.364C186.718 143.952 186.878 141.509 185.773 139.53C184.668 137.553 182.507 136.408 180.25 136.61L180.25 136.61ZM39.4791 162.562V162.56C36.3085 162.711 33.858 165.404 34.0064 168.579C34.1548 171.752 36.846 174.204 40.0187 174.056H80.2134H80.2114C81.7475 174.076 83.2275 173.478 84.3205 172.399C85.4134 171.318 86.0291 169.846 86.0291 168.308C86.0291 166.772 85.4134 165.298 84.3205 164.219C83.2275 163.138 81.7475 162.543 80.2114 162.561H40.0167H40.0187C39.8382 162.553 39.6597 162.553 39.4792 162.561L39.4791 162.562ZM240.45 162.562V162.56C237.279 162.711 234.829 165.404 234.977 168.579C235.126 171.752 237.817 174.204 240.99 174.056H281.184H281.182C282.718 174.076 284.198 173.478 285.291 172.399C286.384 171.318 287 169.846 287 168.308C287 166.772 286.384 165.298 285.291 164.219C284.198 163.138 282.718 162.543 281.182 162.561H240.988H240.99C240.809 162.553 240.631 162.553 240.45 162.561L240.45 162.562ZM143.373 237.276H177.824V243.023H143.373V237.276ZM143.373 254.516H177.824V260.264H143.373V254.516ZM143.823 271.757H177.377C176.383 275.441 173.465 277.504 169.213 277.504H151.987C147.735 277.504 144.817 275.443 143.823 271.757Z" fill="#054A91"/>
<path d="M357.182 283.818C354.97 283.818 353.03 283.402 351.364 282.568C349.697 281.72 348.462 280.5 347.659 278.909C346.856 277.303 346.636 275.364 347 273.091C347.348 271.091 348.023 269.47 349.023 268.227C350.023 266.97 351.235 265.985 352.659 265.273C354.098 264.545 355.644 264.008 357.295 263.659C358.962 263.295 360.621 263.015 362.273 262.818C364.424 262.545 366.174 262.333 367.523 262.182C368.871 262.03 369.886 261.78 370.568 261.432C371.25 261.083 371.667 260.485 371.818 259.636V259.455C372.182 257.227 371.886 255.492 370.932 254.25C369.977 252.992 368.273 252.364 365.818 252.364C363.273 252.364 361.144 252.924 359.432 254.045C357.72 255.167 356.455 256.364 355.636 257.636L350.909 255.818C352.152 253.697 353.636 252.045 355.364 250.864C357.091 249.667 358.902 248.833 360.795 248.364C362.689 247.879 364.515 247.636 366.273 247.636C367.394 247.636 368.659 247.773 370.068 248.045C371.477 248.303 372.795 248.841 374.023 249.659C375.265 250.477 376.197 251.712 376.818 253.364C377.455 255.015 377.545 257.227 377.091 260L373.273 283H367.909L368.727 278.273H368.455C367.97 279.03 367.227 279.841 366.227 280.705C365.242 281.568 363.992 282.303 362.477 282.909C360.977 283.515 359.212 283.818 357.182 283.818ZM358.727 279C360.848 279 362.705 278.583 364.295 277.75C365.902 276.917 367.189 275.841 368.159 274.523C369.144 273.205 369.758 271.818 370 270.364L370.818 265.455C370.545 265.727 370.008 265.977 369.205 266.205C368.402 266.417 367.492 266.606 366.477 266.773C365.477 266.924 364.5 267.061 363.545 267.182C362.606 267.288 361.848 267.379 361.273 267.455C359.848 267.636 358.492 267.932 357.205 268.341C355.932 268.735 354.856 269.333 353.977 270.136C353.114 270.924 352.576 272 352.364 273.364C352.045 275.227 352.492 276.636 353.705 277.591C354.917 278.53 356.591 279 358.727 279ZM422.426 248.091L421.699 252.636H402.881L403.608 248.091H422.426ZM403.426 283L410.062 243.273C410.366 241.273 411.093 239.606 412.244 238.273C413.411 236.939 414.797 235.939 416.403 235.273C418.025 234.606 419.669 234.273 421.335 234.273C422.653 234.273 423.706 234.379 424.494 234.591C425.297 234.803 425.881 235 426.244 235.182L423.972 239.818C423.699 239.727 423.335 239.614 422.881 239.477C422.441 239.341 421.835 239.273 421.062 239.273C419.29 239.273 417.941 239.72 417.017 240.614C416.093 241.508 415.472 242.818 415.153 244.545L408.79 283H403.426ZM437.233 283.727C433.884 283.727 431.119 282.985 428.938 281.5C426.756 280 425.233 277.909 424.369 275.227C423.506 272.53 423.369 269.394 423.96 265.818C424.551 262.242 425.725 259.091 427.483 256.364C429.241 253.621 431.43 251.485 434.051 249.955C436.672 248.409 439.551 247.636 442.688 247.636C444.506 247.636 446.256 247.939 447.938 248.545C449.619 249.152 451.074 250.136 452.301 251.5C453.528 252.848 454.384 254.636 454.869 256.864C455.354 259.091 455.324 261.833 454.778 265.091L454.415 267.364H427.506L428.233 262.727H449.688C450.036 260.758 449.945 259 449.415 257.455C448.9 255.909 447.998 254.689 446.71 253.795C445.438 252.902 443.824 252.455 441.869 252.455C439.854 252.455 437.975 253 436.233 254.091C434.491 255.167 433.036 256.53 431.869 258.182C430.703 259.818 429.975 261.485 429.688 263.182L429.051 267.182C428.597 270.076 428.665 272.379 429.256 274.091C429.862 275.803 430.915 277.038 432.415 277.795C433.915 278.538 435.794 278.909 438.051 278.909C439.491 278.909 440.816 278.712 442.028 278.318C443.241 277.909 444.324 277.303 445.278 276.5C446.233 275.682 447.036 274.667 447.688 273.455L452.597 274.909C451.763 276.667 450.589 278.212 449.074 279.545C447.574 280.864 445.816 281.894 443.801 282.636C441.801 283.364 439.612 283.727 437.233 283.727ZM470.244 283.818C468.032 283.818 466.093 283.402 464.426 282.568C462.759 281.72 461.525 280.5 460.722 278.909C459.919 277.303 459.699 275.364 460.062 273.091C460.411 271.091 461.085 269.47 462.085 268.227C463.085 266.97 464.297 265.985 465.722 265.273C467.161 264.545 468.706 264.008 470.358 263.659C472.025 263.295 473.684 263.015 475.335 262.818C477.487 262.545 479.237 262.333 480.585 262.182C481.934 262.03 482.949 261.78 483.631 261.432C484.313 261.083 484.729 260.485 484.881 259.636V259.455C485.244 257.227 484.949 255.492 483.994 254.25C483.04 252.992 481.335 252.364 478.881 252.364C476.335 252.364 474.206 252.924 472.494 254.045C470.782 255.167 469.517 256.364 468.699 257.636L463.972 255.818C465.214 253.697 466.699 252.045 468.426 250.864C470.153 249.667 471.964 248.833 473.858 248.364C475.752 247.879 477.578 247.636 479.335 247.636C480.456 247.636 481.722 247.773 483.131 248.045C484.54 248.303 485.858 248.841 487.085 249.659C488.328 250.477 489.259 251.712 489.881 253.364C490.517 255.015 490.608 257.227 490.153 260L486.335 283H480.972L481.79 278.273H481.517C481.032 279.03 480.29 279.841 479.29 280.705C478.305 281.568 477.055 282.303 475.54 282.909C474.04 283.515 472.275 283.818 470.244 283.818ZM471.79 279C473.911 279 475.767 278.583 477.358 277.75C478.964 276.917 480.252 275.841 481.222 274.523C482.206 273.205 482.82 271.818 483.062 270.364L483.881 265.455C483.608 265.727 483.07 265.977 482.267 266.205C481.464 266.417 480.555 266.606 479.54 266.773C478.54 266.924 477.563 267.061 476.608 267.182C475.669 267.288 474.911 267.379 474.335 267.455C472.911 267.636 471.555 267.932 470.267 268.341C468.994 268.735 467.919 269.333 467.04 270.136C466.176 270.924 465.638 272 465.426 273.364C465.108 275.227 465.555 276.636 466.767 277.591C467.979 278.53 469.653 279 471.79 279ZM517.125 248.091L516.398 252.636H498.307L499.034 248.091H517.125ZM505.67 239.727H511.034L505.489 273C505.246 274.515 505.284 275.652 505.602 276.409C505.936 277.152 506.436 277.652 507.102 277.909C507.784 278.152 508.519 278.273 509.307 278.273C509.898 278.273 510.383 278.242 510.761 278.182C511.14 278.106 511.443 278.045 511.67 278L512.034 282.818C511.625 282.955 511.072 283.091 510.375 283.227C509.693 283.379 508.852 283.455 507.852 283.455C506.337 283.455 504.913 283.129 503.58 282.477C502.246 281.826 501.223 280.833 500.511 279.5C499.799 278.167 499.61 276.485 499.943 274.455L505.67 239.727ZM543.739 268.727L547.193 248.091H552.557L546.739 283H541.375L542.375 277.091H542.011C540.92 278.864 539.398 280.371 537.443 281.614C535.489 282.841 533.193 283.455 530.557 283.455C528.375 283.455 526.511 282.977 524.966 282.023C523.436 281.053 522.345 279.598 521.693 277.659C521.057 275.705 520.981 273.242 521.466 270.273L525.193 248.091H530.557L526.92 269.909C526.511 272.455 526.898 274.485 528.08 276C529.261 277.515 530.966 278.273 533.193 278.273C534.527 278.273 535.936 277.932 537.42 277.25C538.92 276.568 540.254 275.523 541.42 274.114C542.602 272.705 543.375 270.909 543.739 268.727ZM556.562 283L562.381 248.091H567.562L566.653 253.364H567.017C567.926 251.636 569.312 250.235 571.176 249.159C573.04 248.083 575.017 247.545 577.108 247.545C577.517 247.545 578.009 247.553 578.585 247.568C579.161 247.568 579.608 247.591 579.926 247.636L579.017 253.091C578.835 253.045 578.426 252.977 577.79 252.886C577.153 252.78 576.472 252.727 575.744 252.727C574.047 252.727 572.479 253.083 571.04 253.795C569.6 254.492 568.396 255.462 567.426 256.705C566.456 257.932 565.835 259.333 565.562 260.909L561.926 283H556.562ZM593.983 283.727C590.634 283.727 587.869 282.985 585.688 281.5C583.506 280 581.983 277.909 581.119 275.227C580.256 272.53 580.119 269.394 580.71 265.818C581.301 262.242 582.475 259.091 584.233 256.364C585.991 253.621 588.18 251.485 590.801 249.955C593.422 248.409 596.301 247.636 599.438 247.636C601.256 247.636 603.006 247.939 604.688 248.545C606.369 249.152 607.824 250.136 609.051 251.5C610.278 252.848 611.134 254.636 611.619 256.864C612.104 259.091 612.074 261.833 611.528 265.091L611.165 267.364H584.256L584.983 262.727H606.438C606.786 260.758 606.695 259 606.165 257.455C605.65 255.909 604.748 254.689 603.46 253.795C602.188 252.902 600.574 252.455 598.619 252.455C596.604 252.455 594.725 253 592.983 254.091C591.241 255.167 589.786 256.53 588.619 258.182C587.453 259.818 586.725 261.485 586.438 263.182L585.801 267.182C585.347 270.076 585.415 272.379 586.006 274.091C586.612 275.803 587.665 277.038 589.165 277.795C590.665 278.538 592.544 278.909 594.801 278.909C596.241 278.909 597.566 278.712 598.778 278.318C599.991 277.909 601.074 277.303 602.028 276.5C602.983 275.682 603.786 274.667 604.438 273.455L609.347 274.909C608.513 276.667 607.339 278.212 605.824 279.545C604.324 280.864 602.566 281.894 600.551 282.636C598.551 283.364 596.362 283.727 593.983 283.727ZM649.222 283.727C646.009 283.727 643.32 282.962 641.153 281.432C638.987 279.902 637.456 277.758 636.562 275C635.684 272.242 635.54 269.03 636.131 265.364C636.706 261.788 637.85 258.674 639.562 256.023C641.29 253.356 643.434 251.295 645.994 249.841C648.57 248.371 651.403 247.636 654.494 247.636C657.706 247.636 660.388 248.409 662.54 249.955C664.706 251.485 666.237 253.636 667.131 256.409C668.025 259.167 668.176 262.394 667.585 266.091C667.009 269.636 665.85 272.735 664.108 275.386C662.381 278.023 660.237 280.076 657.676 281.545C655.131 283 652.313 283.727 649.222 283.727ZM649.312 278.909C651.767 278.909 653.896 278.28 655.699 277.023C657.517 275.765 658.987 274.106 660.108 272.045C661.244 269.985 662.009 267.758 662.403 265.364C662.767 263.091 662.752 260.977 662.358 259.023C661.964 257.053 661.123 255.47 659.835 254.273C658.547 253.061 656.737 252.455 654.403 252.455C651.949 252.455 649.805 253.091 647.972 254.364C646.153 255.636 644.684 257.311 643.562 259.386C642.441 261.462 641.691 263.697 641.312 266.091C640.949 268.364 640.956 270.477 641.335 272.432C641.729 274.371 642.57 275.939 643.858 277.136C645.161 278.318 646.979 278.909 649.312 278.909ZM694.364 248.091L693.636 252.636H674.818L675.545 248.091H694.364ZM675.364 283L682 243.273C682.303 241.273 683.03 239.606 684.182 238.273C685.348 236.939 686.735 235.939 688.341 235.273C689.962 234.606 691.606 234.273 693.273 234.273C694.591 234.273 695.644 234.379 696.432 234.591C697.235 234.803 697.818 235 698.182 235.182L695.909 239.818C695.636 239.727 695.273 239.614 694.818 239.477C694.379 239.341 693.773 239.273 693 239.273C691.227 239.273 689.879 239.72 688.955 240.614C688.03 241.508 687.409 242.818 687.091 244.545L680.727 283H675.364ZM730.312 275.182V244.455H736.426V275.182H730.312ZM718.017 262.864V256.773H748.744V262.864H718.017ZM798.46 251.591H791.369C791.097 250.076 790.589 248.742 789.847 247.591C789.104 246.439 788.195 245.462 787.119 244.659C786.044 243.856 784.839 243.25 783.506 242.841C782.188 242.432 780.786 242.227 779.301 242.227C776.619 242.227 774.218 242.902 772.097 244.25C769.991 245.598 768.324 247.576 767.097 250.182C765.884 252.788 765.278 255.97 765.278 259.727C765.278 263.515 765.884 266.712 767.097 269.318C768.324 271.924 769.998 273.894 772.119 275.227C774.241 276.561 776.627 277.227 779.278 277.227C780.748 277.227 782.142 277.03 783.46 276.636C784.794 276.227 785.998 275.629 787.074 274.841C788.15 274.053 789.059 273.091 789.801 271.955C790.559 270.803 791.081 269.485 791.369 268L798.46 268.023C798.081 270.311 797.347 272.417 796.256 274.341C795.18 276.25 793.794 277.902 792.097 279.295C790.415 280.674 788.491 281.742 786.324 282.5C784.157 283.258 781.794 283.636 779.233 283.636C775.203 283.636 771.612 282.682 768.46 280.773C765.309 278.848 762.824 276.098 761.006 272.523C759.203 268.947 758.301 264.682 758.301 259.727C758.301 254.758 759.21 250.492 761.028 246.932C762.847 243.356 765.331 240.614 768.483 238.705C771.634 236.78 775.218 235.818 779.233 235.818C781.703 235.818 784.006 236.174 786.142 236.886C788.294 237.583 790.225 238.614 791.938 239.977C793.65 241.326 795.066 242.977 796.188 244.932C797.309 246.871 798.066 249.091 798.46 251.591Z" fill="#DB3069"/>
<path d="M413.734 104.984C413.005 98.1615 409.932 92.849 404.516 89.0469C399.151 85.2448 392.172 83.3437 383.578 83.3437C377.536 83.3437 372.354 84.2552 368.031 86.0781C363.708 87.901 360.401 90.375 358.109 93.5C355.818 96.625 354.646 100.193 354.594 104.203C354.594 107.536 355.349 110.427 356.859 112.875C358.422 115.323 360.531 117.406 363.188 119.125C365.844 120.792 368.786 122.198 372.016 123.344C375.245 124.49 378.5 125.453 381.781 126.234L396.781 129.984C402.823 131.391 408.63 133.292 414.203 135.687C419.828 138.083 424.854 141.104 429.281 144.75C433.76 148.396 437.302 152.797 439.906 157.953C442.51 163.109 443.813 169.151 443.813 176.078C443.813 185.453 441.417 193.708 436.625 200.844C431.833 207.927 424.906 213.474 415.844 217.484C406.833 221.443 395.922 223.422 383.109 223.422C370.661 223.422 359.854 221.495 350.688 217.641C341.573 213.786 334.438 208.161 329.281 200.766C324.177 193.37 321.417 184.359 321 173.734H349.516C349.932 179.307 351.651 183.943 354.672 187.641C357.693 191.339 361.625 194.099 366.469 195.922C371.365 197.745 376.833 198.656 382.875 198.656C389.177 198.656 394.698 197.719 399.438 195.844C404.229 193.917 407.979 191.26 410.688 187.875C413.396 184.437 414.776 180.427 414.828 175.844C414.776 171.677 413.552 168.24 411.156 165.531C408.76 162.771 405.401 160.479 401.078 158.656C396.807 156.781 391.807 155.115 386.078 153.656L367.875 148.969C354.698 145.583 344.281 140.453 336.625 133.578C329.021 126.651 325.219 117.458 325.219 106C325.219 96.5729 327.771 88.3177 332.875 81.2344C338.031 74.151 345.036 68.6562 353.891 64.75C362.745 60.7917 372.771 58.8125 383.969 58.8125C395.323 58.8125 405.271 60.7917 413.813 64.75C422.406 68.6562 429.151 74.099 434.047 81.0781C438.943 88.0052 441.469 95.974 441.625 104.984H413.734ZM528.324 101V122.875H459.34V101H528.324ZM476.371 72.25H504.652V184.906C504.652 188.708 505.225 191.625 506.371 193.656C507.569 195.635 509.132 196.99 511.059 197.719C512.986 198.448 515.121 198.812 517.465 198.812C519.236 198.812 520.85 198.682 522.309 198.422C523.819 198.161 524.965 197.927 525.746 197.719L530.512 219.828C529.001 220.349 526.84 220.922 524.027 221.547C521.267 222.172 517.882 222.536 513.871 222.641C506.788 222.849 500.408 221.781 494.73 219.437C489.053 217.042 484.548 213.344 481.215 208.344C477.934 203.344 476.319 197.094 476.371 189.594V72.25ZM628.461 170.531V101H656.742V221H629.32V199.672H628.07C625.362 206.391 620.909 211.885 614.711 216.156C608.565 220.427 600.987 222.563 591.977 222.563C584.112 222.563 577.159 220.818 571.117 217.328C565.128 213.786 560.44 208.656 557.055 201.938C553.669 195.167 551.977 186.99 551.977 177.406V101H580.258V173.031C580.258 180.635 582.341 186.677 586.508 191.156C590.674 195.635 596.143 197.875 602.914 197.875C607.081 197.875 611.117 196.859 615.023 194.828C618.93 192.797 622.133 189.776 624.633 185.766C627.185 181.703 628.461 176.625 628.461 170.531ZM730.355 223.109C720.928 223.109 712.491 220.688 705.043 215.844C697.595 211 691.71 203.969 687.387 194.75C683.064 185.531 680.902 174.333 680.902 161.156C680.902 147.823 683.09 136.573 687.465 127.406C691.892 118.187 697.855 111.234 705.355 106.547C712.855 101.807 721.215 99.4375 730.434 99.4375C737.465 99.4375 743.246 100.635 747.777 103.031C752.309 105.375 755.902 108.214 758.559 111.547C761.215 114.828 763.272 117.927 764.73 120.844H765.902V61H794.262V221H766.449V202.094H764.73C763.272 205.01 761.163 208.109 758.402 211.391C755.642 214.62 751.996 217.38 747.465 219.672C742.934 221.964 737.23 223.109 730.355 223.109ZM738.246 199.906C744.236 199.906 749.34 198.292 753.559 195.062C757.777 191.781 760.98 187.224 763.168 181.391C765.355 175.557 766.449 168.76 766.449 161C766.449 153.24 765.355 146.495 763.168 140.766C761.033 135.036 757.855 130.583 753.637 127.406C749.47 124.229 744.34 122.641 738.246 122.641C731.944 122.641 726.684 124.281 722.465 127.562C718.246 130.844 715.069 135.375 712.934 141.156C710.798 146.937 709.73 153.552 709.73 161C709.73 168.5 710.798 175.193 712.934 181.078C715.121 186.911 718.324 191.521 722.543 194.906C726.814 198.24 732.048 199.906 738.246 199.906ZM841.977 266C838.122 266 834.555 265.688 831.273 265.063C828.044 264.49 825.466 263.813 823.539 263.031L830.102 241C834.216 242.198 837.888 242.771 841.117 242.719C844.346 242.667 847.185 241.651 849.633 239.672C852.133 237.745 854.242 234.516 855.961 229.984L858.383 223.5L814.867 101H844.867L872.523 191.625H873.773L901.508 101H931.586L883.539 235.531C881.299 241.885 878.331 247.328 874.633 251.859C870.935 256.443 866.404 259.932 861.039 262.328C855.727 264.776 849.372 266 841.977 266Z" fill="#054A91"/>
</g>
<defs>
<clipPath id="clip0_20_84">
<rect width="970" height="334" fill="white"/>
</clipPath>
</defs>
</svg>
