<svg width="100" height="100" viewBox="0 0 100 100" fill="none" xmlns="http://www.w3.org/2000/svg">
<circle cx="50" cy="50" r="50" fill="#177E89"/>
<path d="M41.9688 54.7812H10.7812V44.7188H41.9688V54.7812ZM31.6562 66.4375H21.1875V33.3125H31.6562V66.4375ZM84.0312 55.3438C83.9062 58.5521 83.0521 61.3854 81.4688 63.8438C79.8854 66.2812 77.6875 68.1875 74.875 69.5625C72.0833 70.9375 68.7917 71.625 65 71.625C60.8958 71.625 57.3854 70.7292 54.4688 68.9375C51.5521 67.125 49.3229 64.5417 47.7812 61.1875C46.2604 57.8333 45.5 53.8333 45.5 49.1875V47.3438C45.5 42.6771 46.3021 38.6667 47.9062 35.3125C49.5104 31.9583 51.75 29.375 54.625 27.5625C57.5208 25.75 60.9167 24.8438 64.8125 24.8438C68.8542 24.8438 72.25 25.5729 75 27.0312C77.7708 28.4896 79.9062 30.4792 81.4062 33C82.9271 35.5208 83.8229 38.3646 84.0938 41.5312H72.4062C72.3646 39.1562 71.7917 37.3854 70.6875 36.2188C69.5833 35.0521 67.625 34.4688 64.8125 34.4688C63.125 34.4688 61.7292 34.875 60.625 35.6875C59.5417 36.4792 58.7292 37.8125 58.1875 39.6875C57.6667 41.5417 57.4062 44.0729 57.4062 47.2812V49.1875C57.4062 52.4167 57.6354 54.9688 58.0938 56.8438C58.5729 58.6979 59.3646 60.0208 60.4688 60.8125C61.5938 61.6042 63.1042 62 65 62C66.5625 62 67.8854 61.7708 68.9688 61.3125C70.0521 60.8542 70.875 60.1354 71.4375 59.1562C72.0208 58.1771 72.3229 56.9062 72.3438 55.3438H84.0312Z" fill="white"/>
</svg>
